<?xml version="1.0" encoding="UTF-8" standalone="no"?>
<!-- Created with Inkscape (http://www.inkscape.org/) -->

<svg
   width="672.04108mm"
   height="672.04236mm"
   viewBox="0 0 672.04108 672.04236"
   version="1.1"
   id="svg1"
   xml:space="preserve"
   xmlns="http://www.w3.org/2000/svg"
   xmlns:svg="http://www.w3.org/2000/svg"><defs
     id="defs1" /><g
     id="layer3"
     transform="translate(-3.747869,-1.2485402)"
     style="opacity:0.159468"><circle
       style="display:none;fill:#5bb090;fill-opacity:1;stroke:none;stroke-width:0.245;stroke-dasharray:0.980001, 0.49, 0.245, 0.49;stroke-dashoffset:1.372;stroke-opacity:0"
       id="path3"
       cx="339.76843"
       cy="337.26974"
       r="333.49576" /><path
       d="m 5.876436,299.43131 c -0.0702,0.52123 -20.939629,133.55373 69.505529,237.45825 3.746763,-13.53608 17.304013,-23.85219 29.638365,-21.01056 44.69897,10.30023 94.08133,19.30929 131.44606,-9.86896 10.61402,-8.2894 28.29771,-4.90802 48.02822,-15.47019 -2.33362,5.05883 -7.6491,7.07496 -12.954,9.10167 l -25.31427,10.0965 -41.13478,22.20648 c -21.22117,12.85875 -43.86051,1.14829 -66.05137,-2.82311 -44.035142,-2.20398 -43.283982,20.05542 -43.111742,41.99467 12.201262,-52.28167 49.180482,-22.48429 54.978562,-20.19036 -6.6458,6.20978 -15.4432,4.73605 -23.84028,4.68578 -8.67595,-0.0529 -12.64311,33.65764 17.90489,19.54212 13.70806,-7.13581 31.45498,-26.48215 53.00133,-20.19035 9.11966,2.66435 4.98104,18.96533 0.39714,25.43968 -15.59058,-13.2371 -21.36299,10.44311 -7.12232,11.30829 4.74451,0.28575 15.59772,-6.18595 18.29038,-12.96987 9.73402,-24.52158 14.84736,-43.52396 55.28019,-54.06231 -1.48563,7.81844 -6.16558,13.30854 -15.03098,15.74535 -39.36206,6.22036 -24.05301,32.53581 -21.35928,35.941 4.97178,-5.00856 9.27259,-11.73956 16.2179,-11.71046 3.87218,-8.17562 5.8592,-19.81729 14.6341,-18.9812 3.3319,15.80885 -3.35967,26.84727 -15.82102,35.13402 -96.62716,57.61302 -76.27091,-17.58686 -55.76861,-14.94102 -16.83571,-2.99509 -39.06256,9.78693 -20.96241,45.62739 -36.96044,26.18052 -47.89858,-22.48429 -12.65687,-20.99733 -11.96076,-6.05367 -19.84878,-1.32557 -22.94335,6.05631 -5.67584,13.54402 0.13785,27.8765 17.79826,28.6729 19.91386,0.89958 51.68529,-3.53484 77.52477,-18.98121 -1.06786,13.14979 -2.05635,21.06083 -7.51549,26.24931 -22.32925,21.22223 -30.24373,-0.0317 -9.49246,-13.72923 -15.34848,1.99231 -28.70121,14.58913 -24.91687,24.22525 7.03845,17.92287 28.71047,11.44852 37.18057,0.80698 3.75894,19.89402 16.1843,25.0481 29.26795,29.07771 -23.75562,-22.93409 -16.8955,-35.45417 -17.40509,-50.47721 11.8372,24.72531 14.93071,21.55031 18.59201,20.193 -20.20359,-20.74598 -14.59547,-27.82888 -9.8896,-36.34581 6.06531,-10.97492 15.50247,-18.31711 28.08605,-26.24402 1.61396,12.33223 -2.7051,21.65085 -6.72676,31.09118 -2.26272,5.31284 -16.94577,26.5483 1.58035,41.49725 6.8371,5.51657 26.13581,-5.17525 7.91131,-25.34443 -3.25173,-3.60098 -5.5753,-8.90588 -1.97644,-14.94102 7.28663,-12.21317 7.13846,-27.22034 11.46969,-50.87938 5.97429,-32.63371 24.23848,-63.98419 37.57348,-93.27885 -9.19956,33.39835 -31.23935,65.33621 -24.91581,100.54696 2.09285,11.65224 5.37104,21.56618 -4.25186,28.92424 -22.7711,20.48669 -5.61181,40.67705 14.53356,43.35463 -39.47794,-29.29467 0.70115,-36.57071 2.07434,-51.87156 2.76754,-30.89275 -12.58359,-43.46575 8.21266,-70.47971 0.40746,38.31167 16.14488,75.64173 46.93709,94.25781 10.63096,6.42673 30.90333,42.37302 -7.15698,59.92813 10.04887,4.20422 59.11321,-18.97063 19.57652,-67.95559 -1.89442,-9.05668 5.70177,-19.78554 8.38994,-19.98662 15.14739,-1.13506 15.12358,13.97794 12.58358,19.12937 -9.8769,-17.32227 -21.77256,14.89075 -1.89177,9.18898 7.50094,-2.15371 17.1741,-15.77446 3.29406,-27.178 -17.8435,-14.65527 -19.57387,-21.15608 -21.971,-31.13087 6.82096,3.28612 53.38763,21.39685 25.32592,71.67827 -9.83456,22.54779 -0.55827,36.53366 20.13744,45.39721 -51.61492,-41.34909 39.89916,-48.97702 -7.12259,-116.93525 -7.18079,-10.37696 -44.31771,-22.3864 -53.58606,-49.37125 12.58887,22.38904 53.78185,26.92929 70.59877,51.75779 6.7945,10.03829 16.04169,23.11135 4.92919,42.59527 -34.76361,61.71141 23.22777,62.77504 34.40377,60.53137 -36.97552,-3.94758 -37.53115,-31.92462 -32.16275,-49.68081 5.60123,-10.92729 12.64444,-10.42458 5.2996,-48.81033 l 15.67392,21.971 c 6.02985,6.77598 12.21052,17.29581 6.99294,28.26544 -15.367,32.32414 13.17625,40.39129 16.2216,19.98662 4.0005,4.45294 8.17827,10.71033 15.59187,9.8716 29.9641,-3.38931 11.8401,-34.89589 -0.4868,-35.57058 6.0113,7.23371 18.1795,23.24894 4.7519,26.84198 -18.53405,4.95829 -21.06612,-21.06348 -24.33372,-39.6875 9.1149,5.0509 17.26672,9.57527 25.07722,11.95917 12.1391,3.69887 22.2673,5.97958 31.1123,7.04321 29.1412,3.50837 37.2428,-14.0388 29.9535,-21.85988 -23.5082,-17.38842 -22.4949,22.29379 -1.9579,4.56671 0.9049,14.95425 -21.2725,15.20031 -27.686,4.28625 15.4649,-31.83467 -14.3907,-49.42417 -20.9788,-40.8305 11.4776,-0.0291 16.6978,8.1915 17.7456,12.98046 9.0408,41.32791 -49.60673,27.47962 -80.11319,-25.54552 l -0.24871,0.43127 c -0.09,-0.14817 -0.18256,-0.29898 -0.31221,-0.43127 l 11.7475,-1.143 c 37.15281,-9.56204 67.42111,-23.32302 74.73951,-26.27577 85.5557,-34.52548 73.9669,1.60337 78.3378,9.00906 29.7974,-36.48869 64.5187,-104.86496 60.161,-188.39127 C 668.6484,209.77064 609.1622,123.1659 546.5803,73.680872 487.26069,26.772948 412.58999,3.426715 350.11128,1.414155 189.06496,-3.773385 30.886457,113.28318 5.876436,299.43131 Z M 336.53022,24.940498 c 19.10027,1.35853 32.07279,36.238284 12.5386,51.928074 6.21771,-1.26894 38.1291,-13.47708 20.91002,-34.279674 4.2254,-10.09042 12.07294,-3.28719 12.827,6.46456 3.25437,42.033564 -79.35383,18.330864 -47.15404,116.995842 19.49714,59.73789 -16.26923,66.35591 -29.94025,89.69534 -1.60602,-27.28595 42.94187,-58.98886 5.67796,-88.46 l -23.54792,-19.19922 c -10.74473,-7.39326 -3.15119,-18.08904 7.59883,-11.07837 16.96509,11.06223 26.85786,28.83085 37.51792,48.89632 3.7121,-9.62528 -5.74146,-29.33303 -15.5919,-49.34453 -5.32341,-14.65368 1.13771,-22.82719 4.15661,-32.89644 11.83746,-25.873868 6.29973,-29.341498 5.97694,-39.532188 -3.89996,8.13117 -9.02759,11.86735 -14.29015,15.12305 -5.46894,2.84586 -7.75758,9.4832 -9.09637,17.24713 3.93435,14.761108 8.00364,29.688368 8.5725,40.323298 -6.89769,-6.96648 -17.01271,-31.77434 -8.5725,-55.446618 1.72243,-11.13948 7.14639,-15.85251 12.47245,-22.55043 3.97405,-4.99693 15.39346,-8.201824 26.24667,-7.6999 8.21267,0.37967 11.04635,18.04616 1.22502,14.54255 -3.81264,-1.35943 -1.72773,-6.59077 1.87325,-8.02349 -4.16454,-2.18255 -8.86883,1.88516 -6.53521,9.11463 1.62454,5.02973 18.19804,7.53481 12.79261,-13.23737 -1.84415,-7.080244 -6.99029,-11.904134 -25.46879,-7.695934 4.74927,-4.32276 15.81679,-4.64106 14.29279,-10.346 -1.95263,-7.30647 -9.28952,-6.79847 -13.77157,-2.65351 -5.16466,4.77494 -5.12762,14.34412 -9.30539,18.766634 0.0582,-14.730144 2.55852,-24.411414 14.70289,-26.462804 1.31763,-0.22296 2.61938,-0.28149 3.89203,-0.19095 z m 61.39391,4.89813 c 2.15371,-0.1151 4.73604,1.61078 7.53533,6.96753 9.44563,20.495424 -3.5216,21.761984 -6.88975,25.971764 9.51707,-13.745104 6.37646,-16.401254 0.91546,-25.176954 -0.77787,-0.93266 -1.55839,-1.8325 -2.33891,0 l -4.93448,16.978044 c -1.55046,5.33348 -1.61396,9.82266 -5.72294,12.2047 l 5.45835,-30.242664 c 0.44715,-2.47147 2.83105,-6.53415 5.97694,-6.70242 z m -108.26485,0.49503 c 1.87325,0.0151 3.78089,0.33285 5.62239,0.90011 22.24882,11.73348 12.72911,31.233274 6.75482,37.938604 -4.14602,-5.59355 -13.32442,-15.22148 -15.04686,-21.120364 -0.91281,-3.13108 0.58209,-7.70705 5.4319,-5.08132 0.0503,6.46959 7.81844,5.24933 6.99029,-0.44794 -0.90488,-6.2013 -13.38262,-12.80134 -18.42558,-0.14446 -2.39184,6.00868 4.03489,13.240274 8.05921,18.038234 13.60752,16.22504 8.11741,33.82486 6.75481,50.143038 -5.66738,-7.35594 -15.367,-10.40501 -7.79463,-35.284838 -8.17827,-8.02534 -11.19187,-18.35943 -14.29279,-28.652784 -6.19337,11.522074 -12.19464,28.336614 -7.01648,35.549944 l 27.80215,38.733678 C 279.21088,113.38875 265.89573,85.828952 249.02404,84.030582 l -28.32524,1.32503 c 8.75851,8.45794 11.2993,22.949168 32.74511,19.101868 7.92083,-0.18098 14.49996,-10.267158 24.94412,8.22589 -20.54305,-1.7526 -26.74382,3.56235 -29.44786,10.346 -3.73168,9.36096 -0.90117,20.49807 11.11858,22.21918 7.8994,1.1311 11.66442,-4.19205 11.57182,-10.28356 -0.14023,-9.4107 -9.4652,-6.24099 -11.69405,-5.56842 9.2837,-0.38841 11.99303,10.07851 0.98107,10.90692 -5.41681,0.4072 -16.85819,-13.42972 -0.88953,-21.24895 2.3323,-1.14194 11.18976,-3.30941 27.19441,7.41945 -10.69711,2.61752 -17.29582,13.87686 -1.74625,26.24851 -10.65213,0.50668 -21.34579,3.05038 -31.21158,7.34907 -9.68322,-51.63185 -61.33174,-45.89224 -68.65435,-36.92551 -19.27516,23.60242 8.21452,37.70365 20.02711,55.34157 l -0.24818,1.84335 c -14.66162,-3.18188 -28.89938,-7.76578 -34.91309,-39.39619 -1.55575,10.12983 0.33337,20.26099 6.61458,30.39083 -37.26921,-19.32913 -40.91887,-31.35048 -43.64593,-52.55154 -4.93395,-38.356648 38.25531,-33.208118 52.09672,-24.736688 -26.79991,-10.16239 -39.69888,-4.94586 -42.99744,10.883638 30.70966,16.35998 25.80667,-11.226278 36.38286,-8.257118 -3.25782,20.904988 -7.37526,14.839688 -15.80198,17.636598 15.72498,7.16333 15.01008,-5.70574 20.62269,-9.71445 12.27402,-8.766698 30.23869,10.19149 56.55469,13.84115 -21.1291,-15.4768 -37.76848,-35.164448 -12.5574,-47.275218 2.42544,-8.79899 3.60654,-17.8988 11.0842,-19.13308 -16.28432,-4.572534 -50.94473,9.41731 -22.78301,52.524288 -43.71552,-35.029248 15.49929,-84.386502 38.21853,-49.897778 8.96409,13.60753 -2.97365,18.26287 -4.34366,18.60312 -5.72849,1.42267 -7.14005,-4.84928 -4.504,-6.89345 0.88053,-0.68315 2.21191,-0.89614 3.98489,-0.19077 -1.82669,-12.95717 -16.20706,-0.14393 -6.46589,9.28979 3.38402,3.27686 17.10743,2.17276 16.84417,-12.18115 -0.14473,-7.88009 -4.22037,-12.660844 -7.26361,-18.610794 6.37593,-4.02616 14.91298,-4.74451 23.79451,-4.93342 2.40506,-6.76857 7.72848,-9.44086 13.34823,-9.39509 z m 136.271,16.07 c 2.68816,0.0191 5.73616,0.57758 9.144,1.6719 11.99091,5.905764 16.64493,14.154154 20.95235,22.511284 5.42396,19.88529 -2.72785,22.66632 -5.88169,26.63825 3.64861,-8.90006 3.54807,-16.28881 -2.20662,-21.75934 l -2.93952,5.6269 c 1.52929,3.68935 3.92112,7.38134 2.20662,11.07069 l -7.35277,-7.87929 c -9.24454,-22.47953 -30.2551,-6.13384 -33.80846,-6.94399 6.66486,4.58576 12.9249,12.07268 20.02896,13.50989 l 10.10444,-1.50415 c 16.83279,7.44934 5.20171,17.204268 -1.99496,23.832608 l -0.0238,-0.008 -0.14288,0.16748 c -0.87841,0.81015 -1.94733,1.76186 -2.61143,2.45877 l -1.32028,2.26801 c -23.26745,22.88037 -33.08614,45.35699 -34.23443,67.57325 -13.99646,15.02093 -15.26381,25.71486 -17.15029,36.61384 1.80445,-1.37028 7.9375,-2.6244 13.25298,-3.18744 1.8415,-9.52261 4.24656,-17.74851 8.83708,-20.95685 42.05552,38.42279 42.97362,-13.58027 21.56883,-7.43082 -7.3951,2.12434 -8.74183,4.46352 -11.00402,10.35341 -2.61673,-1.71027 -4.22804,-2.54212 -6.6675,-6.63601 36.36433,-33.16764 57.95169,11.09159 42.96569,26.15115 l -0.3519,0.11297 c 0.67998,-14.73147 -4.10898,-14.56901 -7.27339,-18.83674 11.85598,27.18064 -13.81125,37.61713 -13.77157,38.20345 0.045,0.69612 -33.44862,15.41066 -52.91402,49.11116 -10.92729,-17.31697 -5.33929,-32.22386 -3.30993,-47.64987 -23.82044,-9.30857 -63.73284,7.92242 -59.53654,60.02973 6.0907,30.71812 23.14045,47.62235 24.16704,66.10085 -12.43542,-19.07116 -21.21429,-40.94427 -31.32138,-61.79873 -4.7916,-13.14185 -13.21064,-26.7917 -27.19387,-34.671 l -15.68609,-8.83681 c -16.23007,-12.65529 -20.82668,-21.91809 -17.67231,-28.91764 13.65567,7.94597 26.29667,3.38958 41.84094,34.48685 l -4.1566,0.79375 c 8.85031,7.0194 17.89641,13.80331 23.38652,24.93962 2.36537,-40.34684 29.42431,-56.6285 50.7365,-60.00591 9.94833,-21.74425 2.82839,-45.3255 -5.51128,-69.03481 l -0.037,-0.004 c -4.58263,-17.43999 -14.30078,-32.67099 -6.72576,-55.33784 8.82386,-23.169038 26.8605,-26.674768 42.87573,-34.490038 l 0.0159,-0.12065 c 13.07041,-3.7121 24.56656,-10.64313 36.26379,-17.1651 5.87904,-2.1344 11.75808,-3.46525 17.63712,6.19204 2.28336,-1.73567 4.09046,-3.78645 -0.36512,-9.94463 -4.51908,-6.083564 -16.1634,-0.18124 -25.35502,0.37809 2.4421,-5.158844 6.61987,-7.719744 12.53596,-7.676884 z m 52.61768,21.202384 c 0.80434,-0.0823 1.6219,-0.008 2.45269,0.2458 4.93713,1.51659 5.60652,10.48517 -0.6985,11.40169 -9.89806,1.43854 -9.47208,6.28888 -11.69194,11.14478 -3.52425,14.218978 -22.87058,19.806178 -30.40591,24.935128 8.66775,-10.47644 18.04987,-16.448088 25.98473,-31.567438 3.86027,-7.35013 8.74712,-15.58396 14.35893,-16.15996 z m -293.92245,2.04179 c 1.86955,-0.0227 4.18598,1.38668 6.83975,5.75945 l 11.69511,22.02048 c -4.70112,-2.43708 -28.10616,-8.16716 -23.64952,-22.81555 0.12489,-0.90805 1.99866,-4.92602 5.11466,-4.96438 z m 204.71554,11.19928 c -12.21317,-0.28813 -21.49211,8.25051 -24.45809,12.81642 14.93838,-10.60344 59.25609,-8.56932 46.30473,34.139188 -18.01283,30.72474 -17.02593,11.88165 -38.21641,39.77032 -4.75986,-14.33433 -21.37569,-25.48308 -9.5594,-44.27088 15.68715,0.62415 23.41298,-6.67067 29.76827,-16.1327 l 10.65742,-0.37756 c -13.35352,-11.978488 -26.70175,-10.812468 -40.05527,-4.87495 -11.18394,9.10087 -8.32908,19.63393 -10.66006,29.63862 -7.19667,-9.39138 -3.64067,-17.40905 -3.67242,-25.88604 -5.51127,8.28411 -7.70202,18.56211 3.30465,36.76571 24.77558,71.97592 0.10318,90.5211 5.38956,91.54239 l 13.59958,2.62625 c 4.24921,-29.65767 -0.13494,-69.31606 27.686,-79.53639 2.21192,-10.1391 14.28221,-21.31536 17.57098,-32.05057 4.11956,-13.43765 3.69358,-25.593148 -3.2385,-31.353118 -8.71008,-9.2935 -17.09473,-12.64391 -24.42104,-12.81669 z m 105.61635,0.331 c 5.5642,0.0225 10.9141,3.4499 10.0304,6.5659 -4.5271,15.978188 -31.64948,16.485658 -45.47396,19.101858 2.16164,-4.14073 7.19667,-5.84942 16.90158,-9.289788 4.22804,-0.28945 6.69396,-7.6237 9.60438,-11.93588 2.1881,-3.24327 5.6012,-4.45506 8.9376,-4.44209 z m 23.0928,14.49572 c 6.1887,-0.40798 11.9407,1.46659 16.0417,6.129608 37.0655,42.14257 -2.5082,79.94544 -15.0733,83.5697 6.1013,-10.08115 2.8681,-20.16151 2.6009,-30.24266 -0.082,31.22083 -12.2396,35.3261 -24.9899,42.44313 l -0.7356,-4.77335 c 5.2838,-5.30119 10.6098,-6.45795 20.0078,-23.61035 3.9132,-7.14296 5.6198,-12.26873 -3.8973,-26.79409 -11.8242,-16.18033 -29.61214,-20.1938 -45.99779,-27.06291 l -13.70277,-0.4908 c 13.59959,-6.37805 29.46929,-6.95087 44.69606,-9.17311 8.9429,2.25134 9.4721,7.89358 10.6574,17.25877 2.4686,19.52705 18.5394,3.2811 14.3325,2.62652 -2.749,-0.0378 -9.906,3.68089 -9.3054,0.12065 2.0611,-12.25417 -3.1882,-13.12571 -5.5774,-18.87987 8.3079,1.15914 9.2789,9.52474 15.2479,10.87967 6.0034,1.3626 12.5095,-0.19606 18.1928,2.62652 -11.8481,-28.341118 -21.0503,-13.51889 -41.1586,-17.07171 5.8446,-4.457708 12.4724,-7.147988 18.661,-7.555718 z M 149.15891,109.79571 c -8.12509,31.86113 5.42475,40.65429 17.64162,42.39657 3.68009,-20.62718 -4.3262,-27.72013 -17.64162,-42.39657 z m 332.97151,1.34832 c -4.54554,-0.26776 -9.54616,0.44106 -14.56266,1.27026 12.77143,3.06573 22.74354,7.01807 31.44304,12.2047 -3.003,-9.86499 -9.308,-13.02888 -16.88038,-13.47496 z m -364.46857,6.92441 c 0.8554,0.10504 1.75551,0.41037 2.64901,0.69003 l -0.18335,0.0452 c 9.53029,49.00904 39.64569,53.55802 66.51704,62.28159 19.14789,5.85576 24.27261,-0.007 65.53227,36.65273 l -0.0347,0.004 c -25.17564,-11.89275 -49.4382,-35.72827 -70.16222,-31.5714 -9.5668,1.47267 -19.03147,2.6498 -25.20685,-5.57239 -0.40137,11.36385 9.44166,13.63715 24.9473,10.87966 10.44681,-0.43206 27.35924,-4.95802 40.27963,22.02074 l -1.33588,0.51039 c -16.02154,-10.12537 -43.76839,-16.18089 -62.9139,-20.85132 -26.67635,-6.50822 -14.87303,-35.88252 -48.27217,-52.88279 4.74292,15.31461 2.96571,18.96295 5.18345,25.10287 4.69715,13.00453 13.33076,18.15544 36.91678,29.01897 -49.19768,-5.12922 -88.530905,-32.57709 -66.528422,-40.85749 10.29864,-3.87561 21.831302,16.96165 32.745102,25.46906 -27.407392,-26.50014 -18.404422,-63.17192 -0.13309,-60.93989 z m 263.47976,6.58548 c -18.20598,0.0603 -3.06652,30.93508 11.16013,17.04842 5.9346,-5.79199 0.64822,-16.49809 -10.26584,-17.02884 -0.30691,-0.0151 -0.60589,-0.0196 -0.89429,-0.0196 z m 153.73349,0.23018 c -1.4499,8.80296 -7.411,9.66285 -9.8769,15.12306 -3.593,7.94782 0.127,18.49702 1.2991,28.12282 9.2948,-6.45371 19.5977,-13.7488 14.3828,-25.12615 -0.7435,-1.62216 -3.81,-10.91618 -5.805,-18.11973 z m -328.84453,0.3429 c 1.88357,-0.0934 3.57425,0.0302 4.87018,0.32729 31.7262,7.35833 29.58651,24.44142 25.72597,63.40793 l 18.00808,9.7536 c 5.41787,-54.54703 82.65212,-32.74431 47.40698,41.64435 -2.04523,-25.89768 3.57716,-24.09798 -20.21152,-37.14379 2.0611,9.47287 -0.60061,14.60791 -1.47373,21.38547 10.71827,8.24865 17.83556,17.34794 16.21366,28.50462 l -0.51064,-0.61145 c -22.59277,-29.95004 -48.24836,-56.51605 -83.32259,-70.66359 -5.20567,-6.76116 2.96598,-15.22888 4.77864,-22.88566 2.96519,-26.63402 -18.76716,-20.82668 -23.88605,-16.88439 17.98584,-0.52784 21.89982,7.43506 18.37452,19.88503 -4.16322,-21.1754 -16.18668,-10.96275 -14.69893,-7.12735 2.09418,5.39909 9.72555,8.9543 9.64909,13.4321 -36.76677,-31.34995 -14.10891,-42.37011 -0.92366,-43.02416 z m 177.45525,3.52664 c 6.45054,-0.0897 12.63385,7.44828 3.02154,13.16328 -10.7024,2.00792 -12.2846,-13.61731 -3.02154,-13.16328 z m 61.57119,1.48854 c 5.10645,-0.16272 14.75845,1.3761 26.40806,3.66316 21.29103,9.262 49.35003,15.71439 36.64213,35.81479 -8.7286,13.80675 -11.3877,13.15535 -15.5919,16.18324 -3.65388,-10.41903 9.4615,-9.88377 6.2362,-16.44809 -2.5188,-5.13027 -9.4403,-4.50638 -12.21312,7.16201 -8.01687,-17.30428 5.88962,-17.53076 13.51492,-17.2429 -6.7548,-5.12233 -15.85384,-5.17234 -20.27238,2.91862 -5.17789,11.59299 15.28498,23.95723 10.37168,34.43552 -2.6723,5.70071 -12.66032,13.02544 -24.66182,18.09247 l -0.23548,0.0778 c 2.97921,-16.40443 -6.78127,-36.23019 -2.36538,-56.31973 4.06136,-5.28797 1.64042,-11.80465 23.12988,-13.79829 1.97379,-0.6559 -31.10707,-19.54371 -37.42267,29.98153 -11.33475,-6.08595 -17.81969,-4.73896 -25.20685,-4.77335 3.01889,-3.98436 6.83683,-7.66763 15.3326,-9.5549 12.27931,-10.21742 7.18079,-19.01349 2.60085,-27.85401 -0.75935,-1.5285 0.66675,-2.24023 3.73328,-2.33786 z m 116.01449,0.0378 c 8.4587,0.95594 32.0807,23.06056 8.1439,60.93328 10.6309,-13.64562 14.9331,-32.94116 26.0932,-21.7633 7.3528,12.82144 -4.2598,25.95139 -58.4332,39.77004 11.8824,-7.96026 32.1971,-13.30378 32.7077,-28.88641 0.3731,-11.46387 1.2436,-18.60232 2.204,-27.76432 -7.2469,11.51573 -15.8432,11.43927 -18.7484,37.1438 -0.5423,10.61508 -17.7403,15.39266 -26.8208,21.00712 -20.5158,12.68624 -34.372,15.98268 -51.45083,24.01571 5.49275,-10.38729 12.07294,-21.80432 27.31823,-24.89625 21.4842,-4.35794 30.9615,-6.12985 30.3821,-13.75171 -4.9609,8.44471 -17.5181,6.03382 -26.8288,8.25738 -20.82795,4.80403 -38.61059,23.59051 -57.69764,36.39158 h -0.0291 c 17.03917,-17.87102 39.75894,-35.76505 59.56564,-42.57569 21.7223,-7.46919 34.1048,-17.68289 35.1975,-18.62269 11.438,-10.12984 18.5209,-31.1912 16.3698,-48.28434 l 0.4577,-0.84164 c 0.4286,-0.15399 0.9578,-0.20109 1.569,-0.13256 z m -131.44235,4.95274 c -5.14085,5.41972 -4.67783,15.74138 -5.19642,25.2042 -5.78114,9.0858 -13.48581,12.29149 -20.53166,17.50801 -0.0661,-15.66068 4.47675,-30.56175 25.72808,-42.71221 z M 91.645898,163.63604 c -1.86531,8.97599 14.678292,15.75699 22.970072,18.57189 l -10.10708,-9.19241 c -7.238472,-8.77544 -9.231842,-7.50941 -12.862992,-9.37948 z m 190.721462,12.16183 c -19.57731,-0.95223 -3.93964,33.38036 10.5119,19.27331 5.9346,-5.79199 0.40481,-18.74282 -10.5119,-19.27331 z m 306.55944,1.08718 c -5.5271,5.60757 -11.0066,11.30961 -15.8512,18.30678 6.2733,-3.98833 17.7721,-9.53876 15.8512,-18.30678 z m -306.32925,2.7432 c 6.45054,-0.0897 15.0786,8.44576 5.46629,14.16076 -10.70239,5.05592 -14.72671,-14.02027 -5.46629,-14.16076 z m -202.142732,1.51182 c 7.04268,-0.006 11.12679,3.36683 15.41648,6.5077 -12.31318,-4.30901 -22.874823,-5.45492 -28.848323,1.68724 5.0599,4.64873 12.094903,6.47515 22.050383,4.12671 20.816892,-7.50173 31.447582,-0.14182 46.123222,1.31313 -23.34604,1.70762 -47.307502,0.91889 -71.112595,0.75194 -18.872198,-1.00515 3.44567,-14.37402 16.370833,-14.38672 z m 525.738682,9.46918 c 4.6223,0.12223 8.7234,2.35161 10.676,7.86368 2.2384,6.31692 -3.7518,13.21144 -10.795,13.16699 16.7402,5.53852 13.1974,8.4201 15.8538,11.14081 -20.1216,-10.92465 -19.7697,-4.10422 -28.5856,-4.77362 -2.6855,-0.20346 -6.2521,-1.43033 -11.6946,-4.5122 4.2757,-0.67416 8.4191,-1.48669 14.0335,-0.79507 -13.036,-5.1353 -29.2496,-3.10489 -44.4367,-2.65351 14.5521,-5.67452 29.1015,-8.68891 43.6536,-4.5085 6.1595,2.38601 16.2004,0.41381 14.0811,-6.05578 -2.1167,-6.46906 -14.8564,-0.42307 -22.6536,2.60694 3.0215,-6.03674 12.1655,-11.68347 19.8675,-11.47974 z m -180.77652,2.31854 c 1.22238,0.0966 2.32305,0.55271 3.0824,1.46526 13.20271,15.86548 -10.83998,17.47547 -11.34533,4.77732 -0.14288,-3.58458 4.6011,-6.53256 8.26293,-6.24258 z m -333.404632,4.66064 c -5.22393,1.38747 -9.24163,2.67387 -8.63388,3.56552 4.37224,1.60655 9.31016,-0.24738 14.14912,-1.50045 l -10.29017,5.43983 c -10.046503,1.86822 -18.189843,-5.30357 -32.894063,6.94029 -0.0627,-4.80351 5.52106,-8.45106 15.25243,-11.25379 1.46738,-2.12593 -3.4962,-0.50139 -8.26743,-2.06534 4.06691,-1.4851 18.876963,-1.03531 30.683993,-1.12606 z m 27.603722,1.70656 c -17.89086,7.07019 -34.106122,18.79362 -35.466612,19.99826 -28.197703,24.9682 -45.034201,64.90335 -51.443991,74.03148 3.57505,-9.09902 5.69595,-18.20069 0.89297,-27.30236 -2.32436,-15.62999 9.74936,-22.86158 16.11127,-33.4256 -16.89179,5.98355 -16.49333,-12.14967 2.59927,-9.55093 4.053678,0.55192 13.127028,2.25504 21.714348,-2.07698 12.171893,-6.14045 11.264643,-13.24874 45.592745,-21.67387 z m 35.48935,4.758 c 10.16767,0.25797 21.7006,2.83686 30.77184,7.85204 -20.19671,-3.99468 -52.72141,-8.33729 -58.72665,12.73069 27.38569,-21.04549 35.06972,-4.39446 53.03969,-0.59267 12.54205,-0.36512 24.73484,-2.42755 36.87101,-4.18121 23.61036,-3.41206 31.5693,5.50096 42.87521,11.14081 -26.46443,-9.78376 -45.05193,-8.2079 -59.76859,-1.05992 -6.22194,6.55029 -7.80335,15.12967 -18.70683,19.63182 10.88204,0.77894 21.80801,1.65603 30.66494,-2.38892 7.23715,-5.9862 11.36253,-15.46252 24.9436,-14.32428 1.52744,8.08355 1.5621,15.78637 8.31691,25.20395 -7.7089,1.76265 -15.41754,0.33205 -23.12644,-2.12355 -13.08523,-3.77111 -18.14698,-0.79481 -19.48921,5.30728 7.10274,-2.47597 13.16355,-2.47597 18.18746,0 -2.94508,3.36047 -6.23623,4.95062 -9.87425,4.77334 l -9.87425,10.08063 c 6.72095,-1.2409 13.81548,-0.57679 19.22939,-8.48783 12.06103,-11.60595 31.51399,-0.75671 41.14245,5.19906 l -0.85884,0.10583 c -29.64234,-1.91823 -31.55316,8.35819 -47.11568,10.14942 -12.09199,1.39171 -23.9604,0.22489 -35.26446,-7.23106 16.82776,21.77785 27.13064,12.13908 39.50123,12.46981 -3.2004,4.70958 -7.34007,4.6355 -11.176,6.10129 -8.13012,-1.22502 -12.73228,1.11654 -15.5919,5.30754 -6.44419,9.44298 -7.17391,20.25915 1.03823,27.85533 1.10014,-7.39245 5.57636,-10.90612 12.21396,-11.938 5.71897,-2.73579 12.69471,-2.76754 12.47352,-18.30652 2.55508,10.70769 7.06305,17.76942 13.77526,20.69571 l -10.39336,5.83406 c -10.46956,12.36134 -19.75511,18.90448 -26.7679,14.32719 -18.99972,-8.0645 -16.75315,-28.44271 -10.39336,-51.20216 l -5.1988,10.3452 c -5.67346,14.52827 -9.64088,30.13605 -23.9088,39.26417 -22.26496,8.38994 -16.30786,13.06248 -18.70657,18.83569 3.9026,-2.06375 6.63072,7.45066 20.03477,-7.16756 3.80418,-4.15132 0.1577,-7.05909 14.2674,-19.09498 -7.54248,14.6341 -6.4008,25.95298 3.11864,35.814 1.44912,-4.37886 3.74835,-7.02205 7.27498,-7.16227 5.94572,-6.90034 3.68327,-13.15773 0.77841,-19.36486 6.77254,2.96333 10.84077,12.83494 21.3098,6.36588 l 1.03823,1.59014 c -8.33782,9.26836 -1.29937,17.66094 2.08015,26.26519 3.33904,-7.91633 17.24978,-8.80798 10.13381,-34.75302 3.51023,-2.74108 10.42934,-28.29719 44.95562,-3.7174 11.79566,6.81038 27.51455,8.72596 33.52324,26.26784 -15.19238,-11.96975 -21.96042,-3.42107 -28.32471,6.10393 6.01504,-1.34673 12.66138,-0.11641 17.408,-6.63575 6.61194,1.80182 20.7989,28.51944 21.52121,43.51867 2.49237,51.80277 -8.85825,54.98835 -21.26456,70.03521 -16.62245,14.17108 -37.20068,11.52789 -58.04747,7.72583 -28.62184,-8.05127 -42.34868,-4.69106 -56.77615,0.85725 -13.84617,5.32871 -23.88605,3.91054 -34.95913,1.42875 -25.78126,-5.78115 -29.0748,1.06892 -34.958862,5.70706 9.068322,-3.25966 18.167352,-6.20183 27.966452,-1.9976 12.65926,5.54302 25.22035,12.73439 38.59636,6.5696 18.72933,-9.23396 39.54886,-6.21506 61.24972,1.99761 -16.95741,10.41135 -36.09261,11.94593 -56.77641,7.13846 9.01092,7.04585 20.84679,8.89793 33.56213,9.13606 -13.27943,5.34193 -33.44042,5.73087 -46.42114,-5.46365 -20.92325,-18.04458 -52.85793,-9.7155 -75.517382,-17.38048 l -0.90831,0.037 C 40.239737,442.49416 23.209127,385.8601 28.399937,319.60844 l 10.06524,10.84791 c 15.425478,-0.0212 18.920088,-16.33273 10.93523,-37.11045 -2.55032,-6.63575 3.07525,-24.85496 11.443228,-38.83978 7.66736,55.28892 43.751505,59.18623 71.620065,43.6155 18.2716,-10.20762 36.82498,-25.34443 40.24921,-36.18838 0.36407,7.80653 0.32227,15.75197 -25.72967,32.55036 -7.43505,8.80005 -5.72611,23.46061 -12.30577,28.55119 -7.92295,2.08756 -13.08629,3.24644 -22.36311,5.29431 -8.08805,1.78859 -18.987032,12.19465 -25.741052,12.98046 -27.279333,5.87904 -37.173961,-0.8546 -56.497741,-10.27906 7.45405,19.47598 83.637913,33.07821 99.132443,10.541 l 12.74074,-18.53406 c 27.43094,-4.7678 33.52297,-33.00148 36.35587,-53.10452 2.03835,-50.5079 -33.88704,-45.22947 -36.35587,-42.26058 -9.36334,11.26094 11.95679,23.04495 6.7138,2.28362 23.65137,-1.72535 22.23638,33.31686 7.82849,43.40066 -30.58133,24.83115 -55.09895,19.31988 -74.314842,-3.85233 -4.963323,-13.50962 -8.768293,-36.03995 24.741192,-55.18996 10.73388,-6.1341 21.20371,-7.99889 24.45464,-9.2509 -12.80451,6.66036 -19.06058,15.28048 -23.45081,21.70113 -25.082242,36.67998 6.27142,42.04388 11.43529,40.85325 12.20417,-2.81411 20.96717,-16.39385 4.1566,-34.48605 -5.32262,-5.72823 -4.66936,-20.02208 15.5919,-27.06291 4.29154,-1.49119 9.89991,-2.17064 16.00041,-2.01586 z m 414.71588,9.74963 c 20.3702,0.58526 21.1799,26.40753 55.9884,17.18072 12.4752,-4.82997 19.947,18.65656 -0.3677,9.00165 6.6146,11.321 17.3408,9.34853 18.7404,37.52295 -1.3203,7.12523 -0.3439,13.78479 2.376,20.08716 -22.2647,-29.4931 -19.4204,-31.41662 -32.9063,-49.29452 -11.7395,-15.56305 -33.9195,-26.87743 -53.9141,-33.02899 3.8656,-1.1221 7.1755,-1.55258 10.0833,-1.46897 z m -37.981,6.62834 c 13.2451,-0.57388 23.2913,4.29789 31.8638,11.67474 4.9609,6.4479 5.4875,18.93279 -2.3204,21.49052 -22.053,7.22286 -0.5159,36.74136 18.8595,24.6552 21.254,-13.26118 -9.3001,-52.74813 -27.1568,-57.81649 22.1773,6.26216 54.5253,16.15334 51.0434,53.31857 -9.8716,31.14146 -33.5545,30.13604 -59.9043,18.75896 -26.1858,-15.6554 -15.8539,-17.75619 -22.7859,-26.26254 -5.6357,-14.11579 6.678,-20.23401 15.4358,-20.63406 -2.6327,10.80399 7.6861,9.02202 8.21,5.61895 1.2753,-8.26928 -6.1728,-19.03253 -21.4392,-8.99768 -15.4358,10.1465 -14.06,27.68785 -4.7784,59.28174 6.3791,19.685 22.0133,28.34746 40.0579,34.13919 6.5987,17.47044 20.2407,24.15911 38.5895,23.63788 44.4712,-6.30767 42.7196,-12.61534 53.6734,-18.923 -2.8575,38.8276 -0.6006,58.66341 -19.6744,101.54179 -10.1838,22.89439 -17.1053,42.50002 -36.8247,42.78841 -25.908,0.381 -51.6838,3.05329 -77.5256,8.48519 -20.2036,7.2099 -40.11083,17.2376 -61.3066,15.34054 10.26848,-3.07446 21.56354,-4.40796 28.87398,-12.51744 -28.702,9.78959 -40.78552,2.6035 -54.18667,-3.23056 13.41173,-4.08252 14.66056,-17.74825 54.18667,-7.67027 13.44082,3.42636 22.78852,6.32354 36.78502,0 10.795,-4.87892 22.4605,-8.26294 34.8059,-4.43971 -5.8208,-4.92125 -16.1898,-5.78908 -37.9703,-0.80962 -11.2184,2.56381 -21.7779,0.0873 -32.82952,-4.03754 -18.0631,-6.74423 -37.92273,-5.41602 -55.76887,1.6166 -25.4,10.01183 -44.97917,9.29217 -58.14219,-5.25198 -26.08263,-28.81842 -15.81415,-32.30033 -21.64292,-62.52104 -5.00591,-25.96092 20.09246,-51.16512 32.71573,-59.02325 9.69963,4.61698 18.75102,6.58813 25.31269,-1.61396 l -22.14827,-1.6166 15.81944,-10.0965 c -0.889,-2.8575 -5.43984,-1.97908 -12.65503,1.6166 l -18.9865,11.71046 c 9.91659,-24.04533 53.83213,-35.44887 66.05323,-15.74535 2.54794,10.38489 3.18294,22.47106 20.96559,19.38073 -0.26459,-0.13759 -0.53182,-4.05607 -0.79375,-14.93838 -0.45244,-7.13052 -7.25488,-6.1595 -11.46969,-8.48519 l -13.0519,-9.68639 c 9.48532,1.2991 41.97086,-5.74675 43.90232,34.72391 1.76741,-5.10381 5.15408,-8.22325 1.97908,-19.38337 l 13.44616,12.11527 c -4.67522,14.97542 0.3466,22.70125 11.4723,25.8445 6.6648,-10.11502 2.7543,-17.29052 -1.9791,-24.23054 9.3821,1.71185 14.8431,-3.78619 18.9839,-11.71046 -1.6775,7.49035 -7.4877,17.42281 -1.9685,21.95248 4.1142,3.37873 4.2889,7.29192 9.8821,10.35315 13.2768,-13.29267 3.3735,-22.41286 0,-32.70515 l 16.2164,15.34054 c 2.9871,16.02581 14.5018,15.88029 24.5215,18.5764 -1.9208,-16.62642 -7.9824,-21.96307 -16.2163,-21.40215 -29.0009,-11.557 -28.448,-37.31948 -41.5316,-56.52823 8.4693,28.37921 10.7897,60.66367 -21.35717,45.22523 -40.89136,-37.99152 -54.71055,-25.95827 -74.75538,-25.43969 18.60815,-13.9012 36.63421,-14.62352 54.18931,-4.84716 7.493,5.69648 9.88484,13.34293 24.91584,16.15281 5.9346,0.13494 9.2313,3.49779 9.8901,10.09121 3.2306,-7.91104 11.2818,-23.77017 -12.2634,-31.89817 l -19.37812,0.40481 c 36.89882,-7.18079 34.31912,-15.621 39.15572,-23.82308 -14.2267,10.10179 -24.21734,23.88923 -58.53909,16.55498 8.34495,-4.64873 11.22097,-15.50458 28.08022,-10.50131 -2.21985,-9.1784 -11.62314,-7.36336 -26.49537,2.83104 4.0931,-9.3001 3.41577,-16.81427 -5.14615,-25.03779 18.64255,1.90104 29.60952,25.85006 63.68259,-16.55709 -14.0229,10.32139 -29.27352,5.59805 -44.29921,3.63564 -9.34773,-1.46341 -66.69617,5.15435 -85.82819,54.51157 18.80394,-27.72039 30.48265,-28.24427 34.14184,-21.88104 1.28587,2.23573 13.7107,13.10481 -2.89455,18.65048 -19.92312,7.29985 -38.0021,16.91217 -50.40577,33.59415 17.67682,-39.17157 33.93546,-80.8355 91.42413,-86.79233 22.15091,-0.29184 43.03715,-3.09774 61.00495,-12.006 11.0728,-5.48878 21.1402,-16.48037 38.2191,0.75168 -5.977,-20.32132 -29.591,-13.54719 -49.612,-9.7573 10.6256,-4.90062 19.7246,-7.20328 27.6727,-7.54751 z m -129.87069,1.83939 c -8.96144,0.56938 -20.08452,7.00458 -27.95058,23.85589 -7.29457,15.63052 9.73931,17.42493 13.51756,14.07107 4.16983,-3.70285 2.65377,-13.56784 -8.32115,-10.08856 -0.48948,-7.77161 5.3049,-15.11327 14.81667,-16.36634 0.008,10.13143 13.57313,14.17215 20.26708,5.75152 7.14905,-8.99134 -0.80433,-17.95542 -12.32958,-17.22358 z m 3.62744,4.06029 c 12.58358,-0.79639 9.1096,17.85329 -2.73315,12.89817 -7.91104,-3.30993 -5.69119,-11.08868 0,-12.46954 0.98425,-0.23813 1.89442,-0.37571 2.73315,-0.42863 z m -299.61867,15.3416 c 3.19485,4.66222 6.12775,9.50648 13.59959,11.25749 6.6548,2.6334 6.63019,12.11474 -3.67586,11.81894 -15.78742,-0.45323 -10.70478,-16.31553 -9.92373,-23.07643 z m 245.30765,5.06571 c -1.59015,11.75438 -1.19856,23.51511 4.04283,35.27055 5.25727,14.87223 2.69081,22.64304 -0.73289,29.63862 3.59039,-17.81439 -5.06413,-16.8857 -12.86405,-17.25877 l 6.61459,12.75821 c 2.48973,7.98248 -0.34661,11.61786 -2.57175,15.75329 -5.74411,-5.00591 -20.81213,-45.77556 5.51127,-76.1619 z m 224.91167,6.75296 c 8.9006,9.17972 2.2463,30.73744 -9.5541,20.6383 -17.1609,-14.68887 6.5405,-10.9982 9.5541,-20.6383 z m -142.28759,10.15101 c 18.18746,0.0974 27.54312,26.57131 3.45546,32.58793 2.39712,-29.38198 -19.57917,-23.43679 -20.27238,-25.43704 5.93461,-5.13582 11.72369,-7.17788 16.81692,-7.15089 z m 185.65019,2.608 14.7029,31.89023 c -8.1333,38.01004 10.6918,42.49208 16.039,34.65777 l 0.4922,5.77056 c -20.9894,13.56519 -38.2879,12.67883 -53.6496,4.21746 -8.2921,-5.99017 -17.6768,-8.6413 -27.9294,-8.62807 -7.5407,-1.15358 -9.2102,-5.30489 -11.0252,-9.37948 -3.9344,-19.40189 -18.6505,-21.50533 -28.665,-31.1441 -14.4595,-8.82914 -8.9746,-12.96458 -12.1285,-19.13202 24.1327,37.12633 64.8044,41.64277 69.0907,40.51829 14.9966,-3.81794 35.7028,-8.11741 33.0729,-48.77064 z m -562.312355,6.67014 c 0.66543,11.48292 -9.536638,19.4019 8.57277,36.6104 l 25.725963,8.75506 c -9.12256,-6.01398 -14.17425,-14.52033 -20.008323,-22.55044 -6.35846,-6.38439 -10.6889,-14.31925 -14.29041,-22.81502 z m 355.352625,1.06892 c 4.81277,-0.0159 7.2681,2.20927 7.65704,6.39233 -6.06425,-2.08491 -13.72923,-4.27831 -12.26079,-5.85258 1.51342,-0.36777 3.05858,-0.46038 4.60375,-0.53975 z m -169.29417,7.68614 19.7485,1.59015 c -11.96552,4.17248 -27.89635,0.80433 -25.46615,32.36648 -12.53041,-6.92679 -23.16824,-36.28231 5.71765,-33.95663 z m 380.2994,2.57969 c -3.9476,17.74561 -13.4435,28.88721 -23.1537,39.77217 l 17.6398,-6.00075 c 20.4787,-19.98663 5.117,-31.66798 5.5139,-33.77142 z m -362.04712,2.73315 c 3.07578,-0.045 7.00272,1.53723 10.71483,2.70669 -6.5868,-0.39159 -10.81194,2.29922 -16.35231,5.43983 0.0561,-6.20448 2.36352,-8.0989 5.63748,-8.14652 z m 8.5717,6.94266 c 4.31271,0.11642 9.19957,4.54555 15.55486,19.96811 8.37935,22.25675 21.99745,44.75691 21.86781,59.08939 -6.45319,-16.39623 -12.21317,-32.9565 -34.91442,-47.08525 -15.70302,-2.16164 -26.75202,-7.11729 -11.9425,-27.57487 3.07764,-1.97379 6.08225,-4.48733 9.43425,-4.39738 z m -128.42981,1.2753 c -16.20599,16.77193 -32.61757,21.6535 -42.619352,27.85797 l 16.114982,0.52653 c 18.42453,0.32808 20.41208,-16.12371 26.50437,-28.3845 z m 410.61053,11.94064 c 6.4506,9.97744 12.0915,22.70654 21.3122,23.25952 l 23.8866,-0.37571 C 571.8215,319.75396 564.1751,314.5496 552.3111,307.14656 Z M 352.02951,466.53421 c 6.94002,20.88091 26.10643,30.77897 61.11081,36.74533 22.85735,3.89731 40.91516,17.72444 70.79721,16.95979 L 533.7771,514.99 c -1.0901,3.11414 -62.05539,12.1576 -62.37024,12.19729 -18.17158,2.20133 -37.58142,-6.02986 -57.05475,-16.27452 -10.59127,-5.57213 -27.08275,-7.70996 -39.71396,-11.99356 -20.34116,-6.89769 -22.76739,-34.93294 -22.60864,-32.385 z M 622.767,489.55296 c -20.058,8.86089 -29.9243,5.715 -38.7614,5.65414 -26.2335,-0.18256 -62.3544,13.98588 -78.5045,13.13127 2.6696,-3.62744 12.2766,-13.53344 69.1224,-18.23773 10.8981,-0.90223 33.0252,3.53219 48.1435,-0.54768 z m -278.63266,2.16164 c 3.40783,19.94694 17.95727,31.04092 31.06473,45.1829 -20.58988,-7.9428 -35.83252,-16.45444 -31.06473,-45.1829 z m -221.27766,7.12788 c 11.61839,0.75935 21.3876,8.15975 30.55409,15.49664 -33.32136,-10.75002 -74.209282,-1.06362 -82.505825,-14.27427 16.841003,3.37344 31.742335,0.46038 46.856125,-1.12183 1.73884,-0.18256 3.43562,-0.20902 5.09561,-0.10054 z m 240.11599,5.1091 c 0,0.005 -0.93398,0.4101 -2.78871,1.21179 -0.005,-0.0238 -0.0159,-0.0529 -0.0238,-0.0794 1.87854,-0.762 2.81252,-1.143 2.81252,-1.13242 z m -30.47206,6.11717 c 0.91281,10.12295 3.94229,20.73275 11.98298,26.78641 20.77773,15.63688 35.77431,34.46198 33.51212,41.73009 l -7.5512,24.26758 c 0,0 -5.40015,-3.65654 -8.26823,-5.17525 -16.56027,-8.76565 -26.74409,-28.4824 -26.0694,-30.54615 9.46679,7.54857 23.28598,7.95073 26.00854,23.368 6.51404,-12.9831 8.96673,-22.61923 -12.26079,-34.32175 -29.24969,-16.12635 -17.51541,-35.78754 -17.40164,-46.0322 z m 251.05779,1.41287 14.5442,16.56292 c 2.5426,2.89983 13.4196,3.12737 7.2707,-6.56696 -4.3338,-6.8289 -21.8149,-9.99596 -21.8149,-9.99596 z m -21.336,6.96119 c -9.1493,0.17727 -18.8727,2.87602 -27.5087,7.68879 -19.3728,10.795 -34.0016,8.24706 -58.29034,21.16138 18.38854,3.57981 16.00204,28.26014 31.59654,33.21314 18.2801,4.39738 18.7404,-13.25827 1.4764,-7.69937 -4.6752,1.50548 -10.7315,-6.69132 -11.6258,-11.01196 -3.9714,-19.15319 21.4312,-15.40404 24.757,-13.09159 9.1599,6.37117 19.9126,8.83973 27.1754,14.40392 19.431,14.8881 52.9458,-21.76462 -6.5167,-23.26746 24.093,-9.98537 48.1992,-14.34306 53.1945,18.33827 3.2147,-28.32364 -14.1288,-40.1267 -34.2583,-39.73512 z m -252.71143,41.97614 c 0,0.003 0.003,0.005 0.003,0.0132 z m 0.003,0.0132 c -0.037,24.9555 19.31194,52.71559 3.75708,61.77227 -4.23333,2.46327 -5.00062,-7.54856 -7.90839,-8.07773 -8.97467,-1.63777 -13.89592,12.13909 -4.55083,16.15546 2.46062,-7.57766 17.00212,11.80042 20.56606,-13.12333 4.73339,24.384 -11.10192,46.18831 -48.25471,52.69177 18.84627,-1.25942 49.01142,4.31535 62.88881,-39.77217 4.00844,-21.52385 -17.97579,-41.54752 -26.49802,-69.64627 z m 161.89325,9.30275 c 6.39498,4.60111 13.38792,13.02544 20.41788,9.13871 5.1567,-2.84956 -3.27553,-8.55662 -20.41788,-9.13871 z m -251.99085,7.13849 c -6.68443,8.21796 -9.23343,16.96508 -2.5154,15.70302 7.23345,-1.35731 3.01837,-10.1256 2.5154,-15.70302 z m -89.62443,7.44008 c -8.09863,-0.42068 -18.41288,-0.39952 -16.93175,7.97984 7.92375,13.47523 15.84802,-2.6379 23.77149,-7.70731 -1.68777,0.0582 -4.1402,-0.13494 -6.83974,-0.27253 z m 322.31886,11.97769 c -2.21721,8.67569 -2.14842,13.59694 -12.86404,21.41538 -3.07182,2.24366 4.46352,9.63348 11.74485,5.42131 7.06173,-4.08781 5.26256,-15.58396 1.11919,-26.83669 z M 346.69022,621.6012 c 4.28095,7.70732 8.40581,15.35907 2.37331,19.38073 -28.62263,8.46931 0.36512,29.7815 6.32883,11.71046 5.73881,-17.38577 -0.34131,-27.56958 -8.70214,-31.09119 z"
       fill="#d9d9d9"
       fill-opacity="0.23"
       id="path1-3"
       style="display:inline;mix-blend-mode:normal;fill:#000000;fill-opacity:1;stroke-width:0.264583" /></g></svg>
