<svg width="283" height="68" viewBox="0 0 283 68" fill="none" xmlns="http://www.w3.org/2000/svg">
<path d="M12.3698 66.4133C10.9184 66.4133 9.63199 65.9997 8.51045 65.1727C7.38892 65.9997 6.34436 66.4133 5.37676 66.4133C4.43115 66.4133 3.65048 66.3099 3.03474 66.1031C2.41899 65.9222 1.88022 65.6637 1.41841 65.3277C0.472804 64.6557 0 63.8157 0 62.8077C0 62.2907 0.12095 61.8384 0.362849 61.4507C0.846648 61.8901 1.46239 62.1098 2.21008 62.1098C4.16726 62.1098 5.5197 61.1276 6.26739 59.1633V40.2047C6.26739 39.0157 6.05848 38.1369 5.64065 37.5683C4.98093 36.612 3.8484 35.6686 2.24307 34.7381C3.73844 33.9369 4.70604 33.2261 5.14586 32.6057C5.89354 31.5977 6.26739 30.4605 6.26739 29.194V12.833C5.5197 10.8428 4.16726 9.84768 2.21008 9.84768C1.46239 9.84768 0.846648 10.0674 0.362849 10.5068C0.12095 10.1191 0 9.67968 0 9.18859C0 8.67165 0.12095 8.19349 0.362849 7.75409C0.626739 7.3147 0.978593 6.93992 1.41841 6.62975C2.42999 5.90605 3.58451 5.5442 4.88197 5.5442C6.20142 5.5442 7.41091 5.97067 8.51045 6.82361C9.65398 5.97067 10.8635 5.5442 12.1389 5.5442C13.4364 5.5442 14.6349 5.86728 15.7344 6.51345C18.3294 5.60881 20.7374 5.15649 22.9584 5.15649C25.1795 5.15649 27.1477 5.29865 28.863 5.58296C30.5783 5.86728 32.2166 6.37129 33.7779 7.095C35.3393 7.79286 36.8017 8.73627 38.1651 9.92522C39.5505 11.1142 40.782 12.6004 41.8596 14.3838C44.1466 18.1316 45.609 23.0941 46.2467 29.2715C46.3787 30.7965 46.6536 31.8691 47.0714 32.4894C47.7751 33.4975 48.7317 34.247 49.9412 34.7381C48.6657 35.3067 47.8301 35.8883 47.4342 36.4828C46.7745 37.4649 46.3787 38.7056 46.2467 40.2047C45.521 48.7858 43.069 55.4026 38.8908 60.055C34.8665 64.5523 29.6436 66.801 23.2223 66.801C20.6494 66.801 18.3404 66.3358 16.2952 65.4053C15.3056 66.0773 13.9972 66.4133 12.3698 66.4133ZM18.4063 59.551C19.4619 60.9467 20.8583 61.6446 22.5956 61.6446C24.3548 61.6446 25.8722 61.2439 27.1477 60.4427C28.4451 59.6156 29.5337 58.3491 30.4133 56.6432C32.1946 53.1539 33.0852 47.6744 33.0852 40.2047C33.0852 38.5763 32.8653 37.4649 32.4255 36.8705C31.8317 36.0434 30.8531 35.3326 29.4897 34.7381C30.8311 34.1953 31.6998 33.6525 32.0956 33.1098C32.7553 32.1793 33.0852 31.0032 33.0852 29.5817C33.0852 28.1343 32.9972 26.6998 32.8213 25.2782C32.6454 23.8566 32.3595 22.448 31.9637 21.0522C31.5898 19.6565 31.106 18.3254 30.5123 17.0589C29.9405 15.7666 29.2478 14.6293 28.4341 13.6471C26.6529 11.5019 24.5528 10.4292 22.1338 10.4292C21.3861 10.4292 20.6604 10.4551 19.9567 10.5068C19.253 10.5326 18.7362 10.7782 18.4063 11.2434V59.551ZM34.8005 17.1752C36.4498 22.5772 37.2745 27.2038 37.2745 31.0549C37.2745 32.3731 37.1755 33.1485 36.9776 33.3811C36.8017 33.6138 36.6037 33.8205 36.3838 34.0015C35.988 34.3116 35.5592 34.5572 35.0974 34.7381C36.4168 35.436 37.1095 36.108 37.1755 36.7541C37.2195 37.0385 37.2415 37.3228 37.2415 37.6071V38.5763C37.2415 42.0657 36.9336 45.4516 36.3179 48.7341C35.7021 51.9908 35.2403 54.2007 34.9324 55.3638C35.922 55.0278 36.6367 54.2653 37.0765 53.0764C37.5384 51.8616 37.9232 50.5692 38.2311 49.1994C38.5609 47.8036 38.8248 46.3304 39.0227 44.7796C39.4625 41.6004 39.6825 38.2791 39.6825 34.8156C39.6825 28.6124 38.9018 23.6111 37.3404 19.8116C36.6587 18.3125 35.8121 17.4337 34.8005 17.1752ZM9.43407 55.3638C10.5336 54.8727 11.1384 53.1798 11.2483 50.2849C11.3803 47.3901 11.4462 43.3838 11.4462 38.2662C11.4462 33.1485 11.4352 29.7497 11.4132 28.0696C11.4132 26.3638 11.4022 24.9939 11.3803 23.96C11.3143 20.9101 11.0614 19.075 10.6216 18.4546C10.2037 17.8085 9.80791 17.382 9.43407 17.1752C9.43407 26.1699 9.30212 31.2876 9.03823 32.5282C8.73036 33.5621 7.98268 34.2987 6.79517 34.7381C8.11462 35.2809 8.86231 35.94 9.03823 36.7154C9.30212 37.956 9.43407 42.4921 9.43407 50.3237V55.3638Z" fill="#536C63"/>
<path d="M62.3444 14.3449C61.2229 14.3449 60.1344 13.996 59.0788 13.2982C58.0452 12.6003 57.2536 11.6698 56.7038 10.5067C56.11 9.31775 55.3184 8.41312 54.3288 7.79279C54.0209 7.61187 53.6691 7.41802 53.2732 7.21124L54.3948 6.39707C55.4503 5.62166 56.231 4.67826 56.7368 3.56685C57.2426 2.45544 58.0013 1.58957 59.0128 0.969251C60.0464 0.323082 61.1569 0 62.3444 0C64.8074 0 66.5887 1.2148 67.6882 3.64439C68.4359 5.24689 69.5904 6.43584 71.1518 7.21124C70.8219 7.44387 70.4921 7.65064 70.1622 7.83157C69.8543 8.0125 69.5574 8.21927 69.2716 8.45189C68.6338 8.96883 68.0621 9.7313 67.5563 10.7393C67.0725 11.7473 66.3578 12.6003 65.4122 13.2982C64.4886 13.996 63.466 14.3449 62.3444 14.3449ZM60.5962 9.61499C60.4642 9.33067 60.3543 9.00759 60.2663 8.64574C60.2003 8.25804 60.1674 7.58602 60.1674 6.62969C60.1674 5.67336 60.5852 4.45856 61.4208 2.9853C60.6072 2.9853 60.0354 3.16623 59.7055 3.52808C59.3757 3.86409 59.1228 4.16132 58.9469 4.41979C58.7929 4.65241 58.65 4.89796 58.518 5.15643C58.4081 5.38905 58.2651 5.64751 58.0892 5.93182C57.6714 6.62969 57.3305 7.05616 57.0666 7.21124C57.4185 7.44387 57.7374 7.81864 58.0232 8.33558C58.3311 8.82666 58.683 9.3436 59.0788 9.88638C59.6726 10.7393 60.4532 11.1658 61.4208 11.1658C61.2889 10.8815 61.1459 10.623 60.992 10.3904C60.8601 10.1319 60.7281 9.87346 60.5962 9.61499ZM59.0458 65.1726C58.0342 65.9997 56.8797 66.4132 55.5823 66.4132C54.3068 66.4132 53.3502 66.0772 52.7125 65.4052C52.0967 64.7332 51.7888 64.087 51.7888 63.4667C51.7888 62.6138 51.9428 61.9417 52.2506 61.4507C52.7344 61.8901 53.4492 62.1097 54.3948 62.1097C55.3404 62.1097 56.154 61.386 56.8357 59.9386V47.5709C56.8357 46.4337 56.6378 45.6066 56.242 45.0897C55.6043 44.3143 54.4607 43.4484 52.8114 42.4921C54.3508 41.665 55.3294 41.0059 55.7472 40.5148C56.4729 39.6618 56.8357 38.615 56.8357 37.3744V31.714C56.8357 29.517 56.198 28.328 54.9225 28.1471C54.5487 28.0954 54.0759 28.0696 53.5041 28.0696C52.9324 28.0696 52.4046 28.2893 51.9208 28.7287C51.6129 28.2376 51.459 27.7336 51.459 27.2166C51.459 26.6738 51.5689 26.0794 51.7888 25.4332C52.0307 24.7612 52.3936 24.1279 52.8774 23.5335C54.0209 22.1377 55.3404 21.4399 56.8357 21.4399C58.3311 21.4399 59.6836 21.75 60.8931 22.3704C61.9706 20.7162 63.2021 19.8891 64.5875 19.8891C66.8526 19.8891 67.9851 21.2848 67.9851 24.0762V37.3744C67.9851 38.615 68.216 39.5068 68.6778 40.0495C69.3595 40.8508 70.4701 41.665 72.0094 42.4921C70.3601 43.4484 69.3265 44.1721 68.9087 44.6632C68.293 45.4644 67.9851 46.4337 67.9851 47.5709V60.0549C68.7108 61.4248 69.5354 62.1097 70.4591 62.1097C71.3827 62.1097 72.0864 61.8901 72.5702 61.4507C72.8781 61.9417 73.032 62.5621 73.032 63.3116C73.032 64.0353 72.7131 64.7332 72.0754 65.4052C71.4596 66.0772 70.525 66.4132 69.2716 66.4132C68.0181 66.4132 66.8526 65.9997 65.775 65.1726C64.8734 65.9997 63.7848 66.4132 62.5094 66.4132C61.2339 66.4132 60.0794 65.9997 59.0458 65.1726ZM61.8826 46.7955C61.9046 45.9168 61.9156 45.1801 61.9156 44.5857C61.9376 43.9912 61.9486 43.513 61.9486 43.1511V42.1044C61.9486 41.7167 61.9376 41.2126 61.9156 40.5923C61.9156 39.972 61.9046 39.2871 61.8826 38.5375C61.8826 37.788 61.8716 37.0513 61.8497 36.3276C61.7617 34.5442 61.6517 33.3165 61.5198 32.6444C61.2559 31.1453 60.7501 30.1115 60.0024 29.5428V32.0629C60.0024 36.431 59.9145 39.0027 59.7385 39.7781C59.5846 40.5277 59.3207 41.0963 58.9469 41.484C58.595 41.8459 58.0672 42.169 57.3635 42.4533C58.683 42.9961 59.4307 43.6552 59.6066 44.4306C59.8705 45.6712 60.0024 48.4756 60.0024 52.8437V55.3637C61.014 54.5883 61.5858 52.9988 61.7177 50.595C61.8277 48.9408 61.8826 47.6743 61.8826 46.7955Z" fill="#536C63"/>
<path d="M90.9099 62.9239C88.5129 65.2501 86.0719 66.4132 83.5869 66.4132C81.3659 66.4132 80.0024 66.0772 79.4966 65.4052C79.9804 64.7073 80.2443 63.6605 80.2883 62.2648C80.3323 60.8691 80.3543 59.5638 80.3543 58.349V47.5709C80.3543 46.4337 80.1454 45.6066 79.7276 45.0896C79.1338 44.2884 78.0013 43.4096 76.33 42.4533C77.8693 41.6262 78.8479 40.9671 79.2657 40.476C79.9914 39.623 80.3543 38.5892 80.3543 37.3744V15.4305C80.3543 12.484 79.3317 11.0107 77.2866 11.0107C76.5389 11.0107 75.9231 11.2304 75.4393 11.6698C75.1315 11.1787 74.9775 10.6747 74.9775 10.1577C74.9775 9.61496 75.0875 9.09802 75.3074 8.60693C75.5493 8.11585 75.9012 7.66353 76.363 7.24998C77.4185 6.37119 78.738 5.93179 80.3213 5.93179C81.9047 5.93179 83.1471 6.04811 84.0487 6.28073C85.3682 4.4973 86.7206 3.60559 88.1061 3.60559C90.3711 3.60559 91.5037 5.00132 91.5037 7.79276V24.3864C93.1969 22.3962 95.462 21.0134 98.2988 20.238C99.1565 20.0054 100.267 19.889 101.63 19.889C102.994 19.889 104.423 20.1217 105.919 20.5869C107.414 21.0521 108.711 21.8792 109.811 23.0682C112.01 25.4461 113.363 29.685 113.868 35.7848C114.088 38.964 115.43 41.2126 117.893 42.5308C116.331 43.4354 115.342 44.1979 114.924 44.8182C114.352 45.697 114 46.7438 113.868 47.9586C113.231 54.1877 111.867 58.7884 109.778 61.7608C107.491 64.9916 104.181 66.6071 99.8492 66.6071C97.6281 66.6071 95.341 65.8963 92.988 64.4747C92.2184 64.0353 91.5256 63.5184 90.9099 62.9239ZM88.3369 17.1751C87.4353 17.6662 86.8856 18.5967 86.6876 19.9666C86.4457 21.6725 86.3248 24.4898 86.3248 28.4185V34.3891V35.6297C86.3468 37.0254 86.3688 38.9252 86.3908 41.3289C86.4128 43.7068 86.4348 45.5419 86.4568 46.8343C86.5008 49.6257 86.5667 51.3962 86.6547 52.1458C86.7427 52.8953 86.9406 53.5803 87.2484 54.2006C87.5783 54.7951 87.9411 55.1828 88.337 55.3637L88.3369 17.1751ZM91.5036 53.3477C91.5036 55.4412 92.1084 57.2376 93.3179 58.7367C94.4614 60.21 95.7589 60.9466 97.2102 60.9466C100.883 60.9466 102.719 57.845 102.719 51.6418V34.6605C102.719 29.8013 101.762 26.9194 99.8492 26.0147C99.2334 25.7046 98.5407 25.5495 97.771 25.5495C94.9562 25.5495 93.054 27.1391 92.0644 30.3182C91.6906 31.4813 91.5036 32.9287 91.5036 34.6605V53.3477ZM105.886 55.3637C106.985 54.8726 107.59 53.1797 107.7 50.2848C107.832 47.39 107.898 45.2447 107.898 43.849C107.898 42.4274 107.887 41.2514 107.865 40.3209C107.865 39.3646 107.854 38.3824 107.832 37.3744C107.744 33.6007 107.491 31.4038 107.073 30.7834C106.655 30.1631 106.259 29.7496 105.886 29.5428L105.886 55.3637Z" fill="#536C63"/>
<path d="M128.283 65.1726C127.272 65.9997 126.117 66.4133 124.82 66.4133C123.522 66.4133 122.577 66.0643 121.983 65.3665C121.411 64.6428 121.125 63.9578 121.125 63.3116C121.125 62.4587 121.246 61.8384 121.488 61.4507C121.972 61.8901 122.587 62.1098 123.335 62.1098C124.743 62.1098 125.655 61.3085 126.073 59.706V47.9587C126.073 46.7697 125.875 45.8909 125.479 45.3223C124.776 44.3143 123.632 43.358 122.049 42.4533C124.732 41.0059 126.073 38.7831 126.073 35.7849V31.714C126.073 29.517 125.435 28.3281 124.16 28.1471C123.786 28.0955 123.313 28.0696 122.741 28.0696C122.17 28.0696 121.642 28.2893 121.158 28.7287C120.85 28.2376 120.696 27.7336 120.696 27.2167C120.696 26.6739 120.806 26.0794 121.026 25.4332C121.268 24.7612 121.631 24.128 122.115 23.5335C123.258 22.1378 124.589 21.4399 126.106 21.4399C127.645 21.4399 128.921 21.7242 129.932 22.2929C131.142 20.6904 132.439 19.8891 133.825 19.8891C135.98 19.8891 137.057 21.2848 137.057 24.0763V29.3878C139.257 23.0295 142.753 19.8503 147.547 19.8503C149.702 19.8503 151.45 20.6257 152.792 22.1766C154.177 23.7532 154.87 25.9372 154.87 28.7287V29.2715C154.87 29.4524 154.848 29.8272 154.804 30.3958C154.76 30.9386 154.771 31.4943 154.837 32.0629C154.925 32.6316 155.057 33.0968 155.233 33.4587C155.475 34.0014 155.926 34.4279 156.585 34.7381C156.431 35.4359 156.069 36.0692 155.497 36.6378C154.947 37.1806 154.331 37.452 153.65 37.452H153.023C152.165 38.7185 150.967 39.6102 149.427 40.1271C148.987 40.2822 148.504 40.3597 147.976 40.3597C147.47 40.3597 147.019 40.2305 146.623 39.972C146.25 39.6877 146.041 39.3905 145.997 39.0803C146.415 38.8477 146.623 38.3825 146.623 37.6846V37.4907C146.448 37.5424 146.294 37.5683 146.162 37.5683H145.832C145.106 37.5683 144.446 37.2452 143.853 36.599C143.281 35.9529 142.907 35.1387 142.731 34.1565C143.919 34.2082 144.952 33.6913 145.832 32.6057C146.623 31.6494 147.019 30.6672 147.019 29.6592C147.019 27.2813 146.14 26.0923 144.38 26.0923C142.863 26.0923 141.335 27.5139 139.795 30.357C138.344 32.9676 137.431 35.6686 137.057 38.46V59.4346C137.299 60.3393 137.673 61.0113 138.179 61.4507C138.685 61.8901 139.377 62.1098 140.257 62.1098C141.137 62.1098 141.818 61.8901 142.302 61.4507C142.544 61.8384 142.665 62.407 142.665 63.1566C142.665 63.9061 142.368 64.6428 141.774 65.3665C141.203 66.0643 140.224 66.4133 138.839 66.4133C137.475 66.4133 136.167 65.9739 134.913 65.0951C134.034 65.9739 132.967 66.4133 131.714 66.4133C130.46 66.4133 129.317 65.9997 128.283 65.1726ZM131.12 46.7956C131.142 45.9168 131.153 45.1802 131.153 44.5857C131.175 43.9912 131.186 43.513 131.186 43.1512V42.1044C131.186 41.7167 131.175 41.2256 131.153 40.6311C131.153 40.0108 131.142 39.3259 131.12 38.5763C131.12 37.8009 131.109 37.0514 131.087 36.3276C130.955 33.6396 130.702 31.9208 130.328 31.1712C129.976 30.3958 129.614 29.866 129.24 29.5816V32.1017C129.24 36.444 129.152 39.0028 128.976 39.7782C128.822 40.5277 128.558 41.0964 128.184 41.4841C127.832 41.8459 127.305 42.169 126.601 42.4533C127.92 42.9961 128.668 43.6552 128.844 44.4306C129.108 45.6712 129.24 48.4627 129.24 52.8049V55.325C130.251 54.5496 130.823 52.973 130.955 50.5951C131.065 48.915 131.12 47.6485 131.12 46.7956Z" fill="#536C63"/>
<path d="M166.019 61.2955C164.634 59.6414 163.534 57.677 162.721 55.4025C161.929 53.128 161.445 51.1765 161.269 49.5482C161.093 47.9199 160.939 46.8731 160.808 46.4078C160.698 45.9426 160.5 45.5032 160.214 45.0896C159.642 44.2367 158.597 43.3708 157.08 42.492C158.993 41.484 160.214 39.8686 160.742 37.6458C160.895 37.0254 161.016 36.4051 161.104 35.7848C161.676 31.1582 163.578 27.2941 166.811 24.1925C170.044 21.0651 173.815 19.5013 178.125 19.5013C182.611 19.5013 186.471 21.078 189.703 24.2313C192.848 27.3071 194.706 31.1582 195.278 35.7848C195.476 37.4131 195.773 38.6021 196.169 39.3517C196.916 40.7215 197.961 41.7683 199.302 42.492C197.807 43.345 196.84 44.0945 196.4 44.7407C195.806 45.6453 195.432 46.718 195.278 47.9586C194.574 54.0585 192.771 58.6979 189.868 61.8771C186.966 65.0304 183.095 66.6071 178.257 66.6071C173.067 66.6071 168.988 64.8366 166.019 61.2955ZM183.799 34.6605C183.799 28.1988 181.93 24.9679 178.191 24.9679C174.453 24.9679 172.584 28.1988 172.584 34.6605V51.8356C172.584 58.0389 174.442 61.1405 178.158 61.1405C181.919 61.1405 183.799 58.0389 183.799 51.8356V34.6605ZM186.966 55.3637C188.065 54.8726 188.67 53.1797 188.78 50.2848C188.912 47.39 188.978 45.2447 188.978 43.849C188.978 42.4274 188.967 41.2514 188.945 40.3209C188.945 39.3646 188.934 38.3824 188.912 37.3744C188.824 33.6008 188.571 31.4038 188.153 30.7835C187.735 30.1631 187.339 29.7496 186.966 29.5428L186.966 55.3637ZM167.207 55.3637C167.515 55.0794 167.669 54.7563 167.669 54.3945C167.669 53.8258 167.57 53.1021 167.372 52.2233C166.47 48.1654 166.019 45.3481 166.019 43.7714C166.019 42.1689 166.063 40.9283 166.151 40.0495C166.239 39.1449 166.349 38.2402 166.481 37.3356C166.767 35.578 167.064 34.0272 167.372 32.6832C167.57 31.8044 167.669 31.2099 167.669 30.8998C167.669 30.2794 167.515 29.8271 167.207 29.5428C166.283 30.8351 165.58 32.5669 165.096 34.738C164.612 36.9091 164.216 38.8218 163.908 40.476C163.798 41.1739 163.15 41.8459 161.962 42.492C163.15 43.1382 163.798 43.7844 163.908 44.4305C164.722 48.7986 165.393 51.5772 165.92 52.7661C166.448 53.9551 166.877 54.8209 167.207 55.3637Z" fill="#536C63"/>
<path d="M241.954 25.6659C241.426 25.304 240.634 25.1231 239.579 25.1231C238.545 25.1231 237.677 25.317 236.973 25.7047C236.291 26.0665 235.752 26.8678 235.357 28.1084L233.674 33.3424C232.971 35.5135 232.619 37.116 232.619 38.1499C232.619 39.1838 232.707 39.9204 232.883 40.3598C233.059 40.7733 233.267 41.1352 233.509 41.4453C233.971 42.014 234.444 42.3629 234.928 42.4921C232.157 42.9315 230.354 44.4436 229.518 47.0282L224.174 63.8157C223.69 65.2631 222.921 66.2453 221.865 66.7622C221.491 66.9432 221.085 67.0336 220.645 67.0336C220.227 67.0336 219.754 66.9432 219.226 66.7622L212.002 47.2609C211.035 44.883 209.078 43.2934 206.131 42.4921C207.868 41.3032 208.715 40.1142 208.671 38.9253C208.671 37.9948 208.319 36.4569 207.615 34.3116L205.768 28.7287C205.24 27.2038 204.789 26.2604 204.415 25.8985C203.778 25.2782 203.019 24.968 202.139 24.968C201.26 24.968 200.578 25.1877 200.094 25.6271C199.852 25.3428 199.731 24.7871 199.731 23.96C199.731 23.1329 200.028 22.3834 200.622 21.7113C201.216 21.0135 202.15 20.6646 203.426 20.6646C204.723 20.6646 205.922 21.1298 207.021 22.0603C207.923 21.1298 209.023 20.6646 210.32 20.6646C211.639 20.6646 212.783 21.091 213.751 21.944C214.784 21.091 215.906 20.6646 217.115 20.6646C218.347 20.6646 219.314 21.0135 220.018 21.7113C220.722 22.3834 221.074 23.2363 221.074 24.2702C221.074 24.8905 220.909 25.3945 220.579 25.7822C220.051 25.317 219.512 25.0843 218.962 25.0843C217.775 25.0843 217.181 25.7434 217.181 27.0616C217.181 27.6303 217.269 28.1601 217.445 28.6512L224.174 49.3544L230.343 28.3798C230.541 26.0794 229.705 24.9293 227.836 24.9293C226.956 24.9293 226.153 25.1748 225.428 25.6659C225.186 25.2007 225.065 24.5803 225.065 23.8049C225.065 23.0037 225.362 22.28 225.956 21.6338C226.549 20.9876 227.363 20.6646 228.396 20.6646C229.452 20.6646 230.354 21.0781 231.101 21.9052C231.893 21.0781 232.806 20.6646 233.839 20.6646C234.873 20.6646 235.774 21.0523 236.544 21.8277C237.38 21.0523 238.27 20.6646 239.216 20.6646C240.184 20.6646 240.931 20.9747 241.459 21.595C242.009 22.2154 242.284 22.952 242.284 23.8049C242.284 24.6579 242.174 25.2782 241.954 25.6659ZM211.079 29.5429C210.727 29.8272 210.551 30.2925 210.551 30.9386C210.551 31.5848 210.562 32.0759 210.584 32.4119C210.628 32.7221 210.694 33.0968 210.782 33.5362C210.958 34.3892 211.255 35.3972 211.672 36.5603C212.464 38.8865 212.794 40.2435 212.662 40.6312C212.552 41.0189 212.431 41.3161 212.299 41.5229C212.035 42.0398 211.716 42.3758 211.343 42.5309C212.882 42.8928 213.839 43.4614 214.212 44.2368C214.652 45.2707 214.971 46.0461 215.169 46.563L216.983 51.3317C217.445 52.5207 217.885 53.4382 218.303 54.0844C218.743 54.7306 219.336 55.1571 220.084 55.3638L211.079 29.5429Z" fill="#536C63"/>
<path d="M267.122 61.9546C265.121 65.0563 262.119 66.6071 258.117 66.6071C253.235 66.6071 249.574 64.8882 247.133 61.4506C246.077 59.9774 245.351 58.3361 244.956 56.5268C244.736 55.4413 244.351 54.6142 243.801 54.0455C243.251 53.4511 242.57 52.9212 241.756 52.4559C243.339 51.603 244.472 50.0005 245.153 47.6485C245.879 45.1672 247.089 43.3708 248.782 42.2594C250.607 41.0963 252.619 40.4889 254.818 40.4372C257.018 40.3597 258.645 40.2692 259.7 40.1658C260.756 40.0624 261.691 39.8944 262.504 39.6618C264.022 39.2483 265.209 38.4858 266.067 37.3744V31.5589C266.067 29 265.616 27.1261 264.714 25.9372C263.835 24.7482 262.482 24.1538 260.657 24.1538C258.854 24.1538 257.512 24.5544 256.633 25.3556C255.775 26.131 255.346 27.1778 255.346 28.496C255.346 30.5121 256.226 31.4942 257.985 31.4425C257.633 33.4586 256.71 34.4666 255.214 34.4666C254.774 34.4666 254.346 34.3762 253.928 34.1952V34.3115C253.928 34.9836 254.192 35.41 254.719 35.5909C254.17 36.5731 253.246 37.0513 251.949 37.0254C250.651 36.9996 249.64 36.1854 248.914 34.5829C248.584 34.6863 248.199 34.738 247.759 34.738C247.342 34.738 246.869 34.57 246.341 34.234C245.835 33.898 245.428 33.4327 245.12 32.8383C246.22 32.0629 246.891 30.861 247.133 29.2327C247.397 27.2425 248.749 25.2264 251.19 23.1845C254.137 20.7291 257.897 19.5013 262.471 19.5013C270.058 19.5013 274.687 22.2411 276.358 27.7206C276.908 29.5557 277.183 31.7269 277.183 34.234V37.3744C277.183 38.6409 277.447 39.6747 277.975 40.476C278.525 41.2772 279.448 41.9363 280.746 42.4533C279.36 43.2028 278.47 43.8748 278.074 44.4693C277.48 45.3739 277.183 46.4078 277.183 47.5709V59.202C277.821 61.1405 278.733 62.1097 279.921 62.1097C280.669 62.1097 281.284 61.89 281.768 61.4506C282.076 61.9417 282.23 62.562 282.23 63.3116C282.23 64.0353 281.911 64.7332 281.273 65.4052C280.658 66.0772 279.723 66.4132 278.47 66.4132C277.216 66.4132 276.051 65.9997 274.973 65.1726C274.027 65.9997 273.181 66.4132 272.433 66.4132C271.707 66.4132 271.07 66.3227 270.52 66.1418C269.992 65.9867 269.497 65.7283 269.035 65.3664C268.002 64.5652 267.364 63.4279 267.122 61.9546ZM269.2 55.3637C270.476 54.7692 271.147 51.9132 271.213 46.7955C271.213 45.71 271.213 44.4693 271.213 43.0736C271.213 41.6779 271.202 40.4889 271.18 39.5067C271.18 38.4987 271.169 37.5424 271.147 36.6377C271.059 33.3811 270.806 31.4425 270.388 30.8222C269.97 30.1761 269.574 29.7496 269.2 29.5428V55.3637ZM257.028 52.611C257.028 53.6966 257.127 54.7563 257.325 55.7902C257.523 56.8241 257.82 57.7287 258.216 58.5041C259.096 60.1324 260.338 60.9466 261.943 60.9466C263.153 60.9466 264.154 60.3651 264.945 59.202C265.693 58.0647 266.067 56.6044 266.067 54.8209V42.1819C264.659 43.1382 262.856 43.7973 260.657 44.1591C258.238 44.5985 257.028 47.4158 257.028 52.611ZM252.081 61.3343C252.3 61.1534 252.41 60.9208 252.41 60.6365C252.41 60.2488 252.256 59.706 251.949 59.0081C250.849 56.6302 250.299 54.6788 250.299 53.1538C250.299 51.6289 250.343 50.5304 250.431 49.8584C250.541 49.1863 250.673 48.6177 250.827 48.1525C251.003 47.6614 251.19 47.2349 251.388 46.8731C251.608 46.5112 251.795 46.1881 251.949 45.9038C252.234 45.3093 252.377 44.9087 252.377 44.7019C252.377 44.4693 252.278 44.2755 252.081 44.1204C251.179 44.6115 250.519 45.193 250.101 45.865C249.354 47.054 248.804 48.5919 248.452 50.4787C248.364 51.0215 247.594 51.6805 246.143 52.4559C247.55 53.2055 248.32 53.8646 248.452 54.4332C249.2 57.509 250.409 59.8094 252.081 61.3343Z" fill="#536C63"/>
</svg>
