<svg width="1139" height="728" viewBox="0 0 1139 728" fill="none" xmlns="http://www.w3.org/2000/svg">
<path d="M956.088 472.425C937.698 474.14 936.938 468.072 934.28 447.515C934.669 421.745 948.026 398.138 965.453 383.871C978.009 395.691 1006.22 408.166 988.735 429.653C971.188 459.549 995.151 436.47 1002.11 421.328C1010.12 435.496 987.749 453.968 978.339 463.088C971.995 468.413 963.979 472.856 956.088 472.425ZM717.424 554.194C691.487 538.42 708.726 572.282 690 570.183C671.916 556.163 670.456 567.657 656.006 567.675C639.59 555.332 618.858 561.51 630.779 542.379C624.114 542.222 605.191 565.083 593.137 571.328C537.602 608.017 470.644 605.322 410.359 587.526C363.977 600.034 318.634 577.374 280.099 547.758C265.39 537.283 250.693 526.785 235.975 516.327C278.643 536.417 320.453 570.93 366.509 572.755C302.078 546.48 238.061 505.235 170.665 484.097C114.89 466.831 50.2933 489.796 19.5922 549.383C-14.152 602.911 8.19982 687.113 60.4315 711.144C104.773 741.925 164.342 721.465 190.089 670.015C200.232 655.174 174.589 701.359 163.379 705.785C102.44 764.113 -5.67261 699.586 0.232232 604.95C5.5481 518.919 84.1366 460.187 153.184 475.265C235.559 490.341 307.311 549.344 387.604 571.906C416.597 570.524 456.943 548.043 447.667 506.404C444.554 475.497 413.402 460.583 392.695 478.636C372.581 480.916 403.016 447.396 416.035 450.104C465.755 447.056 487.37 534.169 448.862 567.425C428.335 581.878 414.121 586.725 446.793 589.446C522.215 607.153 606.035 577.179 652.279 502.506C663.618 482.911 670.086 476.197 675.45 455.918C705.968 380.753 692.923 277.689 631.414 229.357C625.957 212.613 589.594 227.855 601.94 236.77C666.616 289.267 679.428 395.644 655.245 478.368C646.645 509.698 659.685 454.877 659.379 444.067C662.413 431.269 660.952 407.685 659.707 388.817C656.701 331.677 630.887 273.856 586.787 247.381C571.078 274.572 580.177 308.822 585.914 336.858C566.406 329.848 559.358 294.224 560.828 270.754C563.895 257.58 571.692 220.944 554.364 241.978C531.283 277.647 536.768 333.014 565.59 360.514C532.063 332.963 529.193 270.43 554.609 235.487C523.296 221.157 483.508 233.076 454.611 253.968C420.502 279.975 388.481 334.199 413.365 381.967C421.638 393.888 437.384 428.847 414.639 406.703C379.782 375.97 378.277 312.952 406.198 275.91C441.731 218.221 508.777 194.106 566.116 216.149C591.478 199.712 568.6 196.776 551.147 195.579C490.509 194.158 426.327 221.992 388.716 280.158C386.103 304.347 367 321.172 372.817 347.492C374.589 368.639 395.955 383.648 389.615 408.736C393.076 434.207 366.644 413.096 363.694 401.227C367.097 396.183 357.869 374.282 350.268 375.162C341.147 379.144 336.261 385.411 336.702 393.746C322.257 412.411 328.653 384.796 337.535 378.756C361.444 358.538 344.824 365.156 331.846 382.988C321.164 406.496 318.452 396.691 328.302 377.256C334.769 357.724 357.013 361.618 363.879 348.57C370.984 333.036 381.596 308.831 365.027 295.226C366.259 283.918 375.008 258.687 362.889 263.861C349.018 264.657 351.579 275.015 340.439 270.484C353.695 259.922 378.761 252.629 349.09 262.32C324.478 279.595 347.696 253.102 361.206 252.044C379.624 259.833 389.042 236.75 405.644 230.245C400.028 238.229 368.683 250.562 386.016 265.178C387.43 291.937 400.549 253.29 409.893 249.975C457.221 203.86 523.758 179.53 584.423 198.201C656.277 147.19 754.971 221.068 764.637 315.387C770.631 366.221 752.084 415.757 728.55 456.618C744.955 465.064 752.292 427.614 763.396 415.85C804.357 342.786 841.311 262.556 895.259 202.974C932.694 191.977 892.008 205.35 906.209 192.735C913.633 172.036 951.821 186.817 946.713 182.57C954.679 174.816 911.435 186.791 933.239 170.169C945.884 154.129 961.124 148.936 978.586 157.044C998.242 160.255 985.195 152.25 969.76 153.604C939.836 151.477 982.887 133.916 989.957 125.047C1008.43 115.524 1012.63 136.581 1019.45 129.208C999.895 121.543 993.454 117.238 1015.45 103.159C1020.03 107.462 1003.67 98.2398 1008.63 94.2635C1012.89 111.803 978.217 135.521 979.906 122.934C982.388 115.076 983.359 63.1326 980.943 92.8654C975.113 107.858 984.962 115.921 971.892 135.849C955.26 157.501 946.384 144.254 948.751 136.881C954.954 156.079 925.633 178.55 936.425 146.282C937.101 134.165 937.68 77.522 935.855 116.458C930.863 136.955 935.458 129.84 933.386 160.485C931.699 175.79 901.83 191.47 917.088 166.223C909.013 165.535 913.429 157.28 909.982 185.548C897.03 194.681 877.445 221.116 888.355 191.65C895.166 180.365 905.863 168.352 905.982 165.046C891.717 142.611 916.034 132.762 922.589 153.523C931.102 136.733 913.319 118.964 914.367 103.871C930.902 100.894 915.79 74.1464 932.367 66.948C943.572 47.1094 951.527 79.8606 957.349 88.5245C951.793 118.976 961.191 114.688 959.823 87.7018C959.831 72.5883 970.701 61.8554 979.915 52.3116C996.031 55.6572 986.717 99.3495 1000.24 66.8605C1013.33 40.159 1019.97 72.7753 1027.71 72.4557C1039.86 72.0089 1050.8 87.5518 1047.22 104.965C1028.9 115.445 1047.67 133.203 1064.63 126.914C1115.86 135.001 1147.86 201.089 1136.82 258.716C1132.56 318.071 1078.42 372.099 1028.89 344.859C998.039 328.093 1017.24 339.161 1038.11 346.61C1087.08 364.672 1130.95 307.724 1133.84 252.563C1142.96 194.383 1104.74 131.778 1053.46 131.916C1029.47 125.31 1034.72 138.806 1022.46 149.461C999.263 139.358 1028.71 166.232 1004.96 170.106C990.31 174.754 977.145 168.76 962.25 171.334C963.914 193.401 971.506 184.471 989.46 182.553C1019.68 176.751 1067.07 191.212 1066.12 235.35C1057.13 249.242 1047.64 205.222 1029.56 208.972C975.85 194.159 922.553 227.425 881.602 265.848C847.103 300.379 817.077 340.711 789.989 383.496C828.203 303.345 880.224 224.729 954.713 190.353C933.641 178.754 937.756 195.075 921.059 199.931C905.863 206.834 899.797 208.742 886.272 221.768C827.332 293.794 789.703 385.387 736.797 463.05C741.57 468.287 767.555 463.931 758.091 488.697C766.653 503.894 742.136 505.048 758.595 519.641C746.453 535.749 720.169 522.922 746.111 544.285C747.674 560.73 725.775 555.979 717.424 554.194ZM681.385 556.769C675.061 545.756 683.939 554.267 660.156 546.431C676.315 540.74 689.777 525.643 707.449 535.231C725.746 544.087 717.1 529.116 709.948 532.787C679.386 535.114 696.431 521.215 713.404 510.213C728.267 504.898 749.065 515.418 720.429 505.335C735.902 492.517 743.038 494.958 735.567 485.361C737.464 490.063 720.928 505.899 710.23 510.243C704.633 497.778 711.558 478.481 704.469 514.541C693.676 520.665 665.487 553.437 677.591 520.514C686.697 519.168 670.273 494.025 675.829 518.651C681.627 541.428 648.144 549.988 645.252 544.408C664.743 515.312 647.341 543.958 633.736 548.047C640.568 555.523 670.764 573.027 642.648 552.434C655.736 540.595 675.443 557.409 690.219 561.887C687.274 560.182 684.327 558.478 681.385 556.769ZM666.827 514.863C661.666 498.135 678.536 470.586 686.264 495.902C690.625 516.773 697.796 456.468 685.238 485.463C728.021 421.639 746.552 317.765 697.171 250.436C679.481 228.257 650.824 214.041 626.339 220.011C691.852 264.301 711.703 368.76 683.601 447.805C675.742 471.221 671.015 477.608 661.013 498.782C657.833 508.978 623.661 543.616 646.496 527.927C654.908 504.997 668.725 530.316 666.827 514.863ZM722.139 459.967C756.816 404.92 777.078 325.154 743.088 262.44C712.866 203.906 644.334 165.721 590.651 200.093C606.663 208.485 624.407 188.806 642.349 195.638C706.112 201.132 745.406 282.576 737.362 353.067C734.586 391.553 721.764 428.388 703.35 459.794C715.492 459.163 713.87 481.612 721.756 460.606L722.139 459.967ZM371.205 337.714C358.199 340.463 376.041 378.192 371.325 342.508L371.183 340.669L371.205 337.714ZM586.461 213.102C606.495 194.369 561.811 211.731 573.594 220.167C578.449 224.99 582.454 215.036 586.461 213.102ZM346.576 268.051C342.099 272.023 342.357 278.551 346.576 268.051V268.051ZM1002.8 417.487C988.551 406.707 1008.92 372.546 991.053 373.421C981.481 375.284 981.993 383.351 968.092 383.609C979.599 370.168 1011.89 361.7 979.053 371.713C960.303 386.236 963.828 376.906 979.07 364.883C992.083 353.266 1008.52 364.562 1018.62 367.78C1051.87 353.877 1020.87 357.947 1019.92 379.592C1026.22 392.67 1017.24 427.126 1007.15 424.315C1005.71 422.056 1004.23 419.734 1002.8 417.487ZM992.01 402.819C985.639 388.928 1005.46 406.676 992.01 402.819V402.819ZM869.485 449.91C846.853 437.059 845.948 426.575 844.835 455.565C834.488 468.541 815.749 429.316 815.689 441.992C814.712 453.757 785.214 460.029 774.709 453.405C748.424 461.061 775.623 457.694 771.338 439.195C774.771 413.227 791.613 410.98 796.774 400.914C809.922 362.18 835.593 329.321 859.76 298.94C885.844 269.399 919.377 241.767 956.607 241.95C984.206 255.922 956.296 261.152 941.715 265.399C889.443 287.142 848.116 332.354 809.667 377.98C820.484 397.125 826.775 379.864 835.231 364.955C843.475 341.911 867.595 353.195 854.405 375.295C861.337 372.07 882.769 345.63 883.429 370.11C887.581 376.147 900.211 375.518 906.183 387.965C917.91 406.973 893.139 412.876 896.126 430.393C873.291 418.413 889.512 440.339 877.292 450.026C874.801 452.765 872.109 450.507 869.485 449.91ZM829.786 436.176C835.577 428.619 795.903 421.802 826.3 416.237C838.337 404.411 862.429 419.465 862.106 420.98C837.304 407.312 866.251 405.162 878.619 399.752C898.592 404.113 868.526 398.368 865.572 398.667C878.55 364.154 864.052 413.464 847.159 408.434C819.441 423.683 831.54 398.196 845.856 387.259C836.219 386.222 847.128 375.103 831.542 401.971C827.419 417.042 793.981 423.479 797.907 423.618C814.539 398.377 798.138 420.355 807.484 390.019C800.629 407.253 797.714 433.463 780.763 438.806C786.482 405.78 780.755 428.071 777.829 445.185C770.423 451.883 819.509 439.432 794.38 441.961C772.23 446.562 811.681 410.473 820.341 429.529C821.87 430.773 836.613 445.102 829.786 436.176ZM894.423 379.921C889.923 390.717 896.891 369.992 894.423 379.921V379.921ZM986.796 397.71C985.849 374.45 995.815 399.048 986.796 397.71V397.71ZM992.055 391.878C995.929 362.424 999.676 413.324 992.055 391.878V391.878ZM983.097 394.141C984.36 399.784 985.572 387.832 983.097 394.141V394.141ZM980.794 388.525C982.851 366.205 987.341 399.462 980.794 388.525V388.525ZM986.298 386.3C984.171 366.401 997.388 391.353 986.298 386.3V386.3ZM992.025 381.583C992.9 360.289 1004.63 396.929 992.025 381.583V381.583ZM977.058 389.786C971.28 381.02 985.805 390.365 977.058 389.786V389.786ZM593.292 543.006C610.02 510.744 628.419 474.375 620.91 434.713C628.123 409.364 643.644 443.483 642.309 457.212C640.733 478.56 636.815 488.82 627.973 505.192C617.647 522.189 604.405 536.949 590.212 549.077L591.905 545.741L593.292 543.006ZM536.274 566.961C516.358 573.061 487.767 578.146 523.238 565.718C569.015 555.481 605.532 498.459 593.537 443.192C588.838 404.074 534.315 400.583 526.996 437.896C534.045 467.526 505.077 441.524 513.528 424.024C527.391 375.504 594.311 376.745 607.321 425.386C627.687 485.112 588.302 557.064 536.274 566.961ZM1051.31 337.654C1021.31 342.995 1054.05 310.401 1048.55 314.964C1069.62 308.076 1075.9 304.368 1053.02 308.286C1064.26 305.365 1071.84 302.696 1060.75 288.811C1045.47 280.797 1063.8 279.007 1072.18 298.827C1083.79 306.263 1049.05 270.79 1057.84 275.833C1075.56 273.643 1077.8 317.449 1087.25 303.591C1083.02 310.676 1075.11 338.08 1058.34 337.59C1056.15 338.812 1053.58 337.114 1051.31 337.654ZM500.419 566.779C473.981 568.069 508.043 558.605 513.215 546.347C527.127 534.534 529.785 500.961 549.798 502.967C554.056 524.775 548.391 526.774 539.429 542.908C529.989 556.663 515.189 565.34 500.419 566.779ZM1034.15 329.861C1012.6 322.391 1015.06 324.159 997.517 310.735C989.075 303.418 978.149 275.722 988.05 277.405C1002.71 254.267 1035.55 262.787 1052.47 277.807C1049.63 299.697 1045.26 326.844 1021.91 313.422C995.337 311.443 1053.79 326.353 1034.15 329.861ZM1049.34 312.101C1039.37 308.741 1059.61 307.023 1049.34 312.101V312.101ZM1049.98 304.414C1055.69 294.57 1077.58 297.95 1049.98 304.414V304.414ZM197.732 652.301C190.73 676.339 207.897 628.228 197.732 652.301V652.301ZM318.447 602.79C307.529 607.05 289.375 589.356 290.607 595.912C238.528 571.302 203.402 512.832 149.686 492.339C217.741 502.705 266.5 570.958 332.896 588.265C348.083 597.814 325.392 604.746 318.447 602.79ZM1054.2 297.243C1047.62 287.916 1069.74 293.753 1054.2 297.243V297.243ZM1052.26 290.938C1055.04 283.344 1055.8 298.158 1052.26 290.938V290.938ZM200.554 643.204C204.019 641.301 204.225 631.279 200.554 643.204V643.204ZM1091.75 268.841C1065.91 251.204 1101.53 280.384 1106.94 257.758C1125.38 219.309 1094.38 175.473 1065.59 158.944C1097.82 168.862 1134.12 215.484 1113.44 255.216C1109.79 264.14 1100.11 272.592 1091.75 268.841ZM771.167 368.934C778.018 308.268 760.217 242.315 724.638 197.832C704.621 194.558 690.176 170.162 718.957 173.683C760.28 184.324 773.187 241.875 780.076 284.79C784.601 318.219 780.687 352.918 769.387 383.811C769.976 378.852 770.57 373.89 771.167 368.934ZM129.168 498.008C176.795 502.989 214.8 544.276 249.425 579.941C235.84 618.876 145.642 505.363 129.168 498.008ZM790.095 335.861C801.858 288.594 771.648 246.627 766.712 201.434C782.076 186.631 791.296 223.831 795.289 237.518C807.483 270.497 806.904 312.349 788.584 341.509L789.578 337.792L790.095 335.861ZM330.74 510.549C325.211 496.208 308.466 480.905 311.497 459.049C312.416 440.602 312.362 400.045 332.575 403.889C345.98 407.745 373.67 406.734 366.709 431.266C361.197 460.132 369.163 464.752 374.45 434.115C381.475 400.245 386.444 445.58 377.456 457.345C370.393 480.072 357.107 505.312 334.215 505.366C332.625 505.539 333.08 513.079 330.74 510.549ZM809.796 287.068C808.221 265.071 794.867 239.089 803.251 218.899C817.856 207.98 823.82 240.474 821.206 253.508C820.231 260.345 813.348 317.456 809.796 287.068ZM834.065 241.14C826.01 228.79 828.125 206.868 826.689 188.14C847.548 184.743 817.571 176.891 813.895 161.659C808.396 138.641 848.761 159.829 823.192 139.432C807.306 133.267 805.557 98.2436 826.07 107.887C816.756 89.8277 827.898 83.3472 836.387 78.1072C839.622 49.429 855.469 76.4237 865.526 72.9044C863.531 96.8587 882.083 79.586 883.618 99.5201C869.866 131.094 881.426 112.897 896.67 120.775C899.939 141.225 878.926 150.969 873.942 168.323C897.412 172.452 875.525 197.886 863.378 201.413C876.337 215.237 852.954 225.987 845.362 235.057C832.469 234.634 838.04 235.163 834.065 241.14ZM838.82 230.638C855.643 220.06 867.193 211.535 842.316 225.023C843.144 204.645 866.819 192.565 872.491 184.12C850.518 206.127 869.934 170.488 855.116 198.201C845.161 201.26 852.157 159.063 864.953 150.823C885.12 126.462 866.686 152.626 869.279 135.982C863.591 157.409 845.329 176.728 851.665 140.495C845.159 120.331 879.415 92.1472 852.106 120.362C850.483 95.4774 856.912 99.4625 842.178 92.5259C853.104 94.2916 853.35 134.424 846.572 135.14C823.094 114.648 842.332 128.272 849.793 144.565C848.765 159.409 856.149 200.524 839.216 172.081C834.426 158.093 822.94 165.869 844.575 181.085C854.943 192.342 843.549 209.778 839.541 221.283C834.074 189.923 836.659 208.938 836.704 227.903C833.187 229.344 838.07 236.157 838.82 230.638ZM359.341 407.114C355.703 393.391 366.283 402.51 359.341 407.114V407.114ZM351.326 403.44C340.352 380.286 363.152 407.903 351.326 403.44V403.44ZM354.543 395.524C353.441 360.265 366.986 417.152 354.543 395.524V395.524ZM345.989 401.983C347.253 407.626 348.464 395.673 345.989 401.983V401.983ZM341.185 397.841C333.249 373.359 355.401 408.384 341.185 397.841V397.841ZM337.695 401.045C331.269 394.566 344.925 397.655 337.695 401.045V401.045ZM345.315 390.875C339.856 363.044 359.237 402.973 345.315 390.875V390.875ZM350.88 384.926C342.949 361.249 368.539 389.488 350.88 384.926V384.926ZM332.841 352.039C316.881 351.184 310.004 355.928 308.993 334.914C306.567 310.192 320.974 284.534 337.64 273.924C348.144 280.038 369.792 298.036 361.935 305.155C347.166 330.739 354.053 332.86 369.01 308.894C378.871 314.58 356.49 337.807 348.296 344.863C343.095 346.934 338.395 351.443 332.841 352.039ZM777.593 163.769C775.925 155.018 781.021 171.944 777.593 163.769V163.769ZM773.134 154.705C765.381 132.264 751.032 123.471 734.356 137.153C717.097 138.727 700.594 125.101 691.491 108.175C711.416 90.6057 722.739 107.128 733.279 106.19C735.67 125.873 733.322 104.812 745.607 108.005C754.23 98.0107 746.396 102.156 750.783 112.188C759.868 106.435 753.37 107.46 753.292 83.1836C739.792 49.4877 758.571 69.5842 759.277 91.3201C766.181 108.013 746.487 124.921 764.073 135.038C767.274 138.593 781.226 168.061 773.134 154.705ZM756.419 86.9551C749.694 61.877 760.504 116.836 756.419 86.9551V86.9551ZM674.787 175.451C662.482 163.272 642.612 180.487 630.674 161.445C624.466 144.818 655.251 146.781 665.317 148.721C686.628 152.44 649.396 97.9715 668.802 121.611C689.119 138.446 660.638 165.152 676.44 174.659C688.689 184.676 683.58 183.02 674.787 175.451ZM674.097 140.391C669.668 129.962 675.441 154.816 674.097 140.391V140.391ZM361.79 290.397C358.106 280.165 369.971 291.286 361.79 290.397V290.397ZM356.727 285.606C353.647 267.417 364.679 283.792 356.727 285.606V285.606ZM361.404 280.68C365.699 298.13 368.202 258.81 361.404 280.68V280.68ZM351.455 278.38C352.166 263.249 357.187 276.249 351.455 278.38V278.38ZM356.241 272.858C360.07 257.939 360.344 280.24 356.241 272.858V272.858ZM363.658 272.763C357.278 271.737 370.432 259.302 363.658 272.763V272.763ZM666.451 144.402C667.996 134.887 672.19 150.559 666.451 144.402V144.402ZM348.149 277.471C345.878 268.822 353.701 280.852 348.149 277.471V277.471ZM661.964 146.974C639.184 146.081 661.947 138.631 664.989 146.767C663.981 146.649 662.97 146.455 661.964 146.974ZM664.71 137.677C656.652 121.925 661.782 111.015 668.667 139.341C667.073 139.483 664.135 143.019 664.71 137.677ZM740.123 106.198C718.428 92.2707 762.934 101.042 740.123 106.198V106.198ZM623.112 151.039C604.814 137.701 590.555 110.01 596.936 86.0565C600.043 80.1975 623.061 76.2106 632.979 86.2736C645.161 93.68 668.633 111.396 651.769 127.416C638.149 150.989 630.461 140.718 630.378 129.529C629.795 140.087 628.508 127.02 617.183 127.216C641.955 142.235 608.882 132.414 619.574 125.031C606.401 116.55 615.178 119.197 611.283 130.658C611.526 127.293 645.405 163.532 623.112 151.039ZM636.445 138.046C636.514 137.372 641.666 135.017 636.445 138.046V138.046ZM660.377 140.239C644.761 132.52 671.171 136.671 660.377 140.239V140.239ZM587.731 169.034C574.995 159.059 563.243 170.422 552.806 171.808C535.596 177.668 523.912 159.239 511.807 180.295C493.207 199.493 496.887 158.162 480.229 178.972C470.839 189.659 451.148 202.757 440.188 188.861C450.804 165.547 416.105 207.37 420.877 174.702C405.333 182.802 405.318 161.063 391.234 161.613C383.591 147.951 383.141 129.796 396.033 122.812C399.143 113.322 400.095 86.3004 421.091 104.788C443.269 121.533 412.164 83.3392 429.848 78.3632C440.896 81.9431 455.725 82.3583 461.429 97.7081C470.994 120.185 481.018 119.661 464.836 98.0742C462.798 88.3178 459.065 53.021 475.604 62.2346C492.589 64.0632 495.168 86.4036 510.567 88.8678C507.485 99.1747 517.155 142.224 522.642 126.565C521.605 99.5695 546.538 116.9 540.621 136.543C545.531 131.319 562.064 145.384 573.038 149.014C570.54 163.175 597.838 164.372 587.731 169.034ZM568.86 157.132C558.082 142.992 546.785 163.623 537.273 138.565C527.745 121.433 553.532 167.876 523.419 150.196C512.234 150.014 502.679 120.478 502.937 117.339C499.905 124.396 480.213 81.4847 500.028 121.943C512.538 139.595 523.035 160.73 497.1 143.713C501.617 134.835 478.837 157.98 461.655 140.425C455.848 132.307 433.052 92.9528 447.381 121.038C468.767 145.483 458.097 149.403 433.488 142.363C407.237 121.007 436.043 140.017 416.329 141.272C411.263 145.796 460.168 139.588 431.728 158.288C430.283 183.98 435.281 140.261 449.598 146.75C459.592 150.502 504.472 140.467 481.427 158.29C461.821 175.005 462.845 180.377 481.759 160.425C491.182 142.154 519.232 152.173 527.745 156.349C512.327 171.581 514.701 160.815 509.966 173.205C521.622 169.515 533.259 145.783 550.297 155.995C576.482 156.626 524.624 171.868 562.579 160.034C566.445 157.966 580.594 162.502 568.852 157.133L568.86 157.132ZM430.3 162.757C421.641 173.786 430.059 162.585 430.3 162.757V162.757ZM491.066 132.099C487.002 125.494 494.474 143.688 491.066 132.099V132.099ZM453.03 115.83C449.564 114.121 456.326 133.991 453.03 115.83V115.83ZM487.821 96.6323C483.756 90.0294 491.231 108.219 487.821 96.6323V96.6323ZM439.693 104.912C435.629 98.3077 443.102 116.501 439.693 104.912V104.912ZM651.611 139.158C640.172 131.229 664.866 141.497 651.611 139.158V139.158ZM730.009 102.737C708.88 85.4207 749.223 99.9078 730.009 102.737V102.737ZM748.135 97.8709C734.131 83.9376 762.491 93.05 748.135 97.8709V97.8709ZM748.416 93.2428C746.924 98.7432 747.797 93.6285 748.416 93.2428V93.2428ZM657.613 133.517C645.754 128.664 668.504 132.023 657.613 133.517V133.517ZM739.754 96.7443C722.551 85.3485 755.672 91.2023 739.754 96.7443V96.7443ZM654.862 127.4C657.886 132.556 658.73 121.9 654.862 127.4V127.4ZM747.802 88.5455C748.777 88.9044 735.662 59.2201 748.25 74.8844C748.599 77.4079 754.552 90.9524 747.802 88.5455ZM748.973 85.2482C745.569 85.6726 748.854 84.805 748.973 85.2482V85.2482ZM746.281 73.8595C737.589 63.5644 750.958 87.9673 746.281 73.8595V73.8595ZM719.86 97.0392C711.329 109.069 717.349 83.5022 719.86 97.0392V97.0392ZM727.987 91.1585C712.207 77.715 747.399 97.7867 727.987 91.1585V91.1585ZM738.133 87.1766C719.488 74.7194 756.131 87.6252 738.133 87.1766V87.1766ZM690.476 100.342C670.531 78.4361 651.995 37.4824 669.191 8.04683C663.564 -7.54292 684.289 5.09919 694.192 0.867517C717.584 10.6636 735.22 34.1363 744.917 60.8019C733.707 71.5033 718.642 98.6179 704.399 90.3358C693.876 76.9573 670.619 51.6618 688.162 83.9085C691.854 88.6585 706.924 110.067 690.476 100.342ZM736.789 79.2223C729.312 72.517 746.326 77.8837 736.789 79.2223V79.2223Z" fill="#fff"/>
</svg>
